<?xml version="1.0" encoding="UTF-8"?>
<svg id="Layer_1" data-name="Layer 1" xmlns="http://www.w3.org/2000/svg" viewBox="0 0 131.85 47.22">
  <defs>
    <style>
      .cls-1 {
        fill: #dcfffe;
        stroke-width: 0px;
      }
    </style>
  </defs>
  <path class="cls-1" d="M0,27.78h10.37c4.72,0,7.22,1.45,7.22,4.57,0,2.32-1.42,3.86-3.61,4.48,2.38.56,4.2,1.98,4.2,4.63,0,4.08-3.46,5.31-8.52,5.31H0v-18.99ZM8.55,35.03c1.27,0,2.07-.56,2.07-1.79,0-1.14-.86-1.58-2.04-1.58h-1.57v3.37h1.54ZM8.46,42.81c1.48,0,2.38-.62,2.38-2.04,0-1.33-.93-1.88-2.28-1.88h-1.54v3.89h1.45v.03Z"/>
  <path class="cls-1" d="M23.93,27.78h9.88l5.71,18.99h-7.35l-.8-3.21h-5.16l-.8,3.21h-7.22l5.74-18.99ZM30.35,38.8l-1.51-6.45-1.57,6.45h3.09Z"/>
  <path class="cls-1" d="M39.73,40.74v-12.97h7.01v12.53c0,1.36.74,2.04,2.07,2.04s2.07-.71,2.07-2.04v-12.53h7.01v12.97c0,4.14-2.96,6.48-9.08,6.48s-9.08-2.32-9.08-6.48"/>
  <path class="cls-1" d="M0,15.81v-5.74C0,3.24,4.48,0,10.71,0c5.53,0,9.85,2.75,9.85,8.06v.56h-7.84v-.46c0-1.51-.71-2.75-2.28-2.75s-2.5.96-2.5,3.18v7.53c0,2.5,1.02,3.61,2.9,3.61,1.7,0,2.72-1.33,2.72-3.21v-.12h-3.89v-4.72h10.96v13.06h-6.3v-2.32c-1.17,1.88-3.37,2.81-5.9,2.81C3.43,25.25,0,22.29,0,15.81"/>
  <path class="cls-1" d="M22.41.52h10.03c5.87,0,8.58,1.94,8.58,6.36,0,3.8-1.95,5.53-4.48,6.17,3.18.56,4.51,1.61,4.51,4.63v7.07h-7.44v-7.19c0-1.54-.83-2.22-2.72-2.22h-1.05v9.42h-7.41V.52h-.03ZM31.03,10.74c1.67,0,2.65-.74,2.65-2.75v-.31c0-1.73-.93-2.44-2.69-2.44h-1.17v5.5h1.2Z"/>
  <path class="cls-1" d="M42.14,15.19v-5.28C42.14,3.15,46.22.03,52.64.03s10.5,3.06,10.5,9.88v5.28c0,6.85-4.08,10.06-10.5,10.06s-10.5-3.21-10.5-10.06M52.64,19.76c1.91,0,2.65-1.42,2.65-3.33v-7.56c0-1.91-.74-3.33-2.65-3.33s-2.65,1.42-2.65,3.33v7.56c0,1.91.74,3.33,2.65,3.33"/>
  <path class="cls-1" d="M64.8.52h8.95c5.43,0,8.95,1.94,8.95,7.69v.28c0,6.11-3.55,8.09-8.8,8.09h-1.67v8.21h-7.41V.52h-.03ZM72.76,11.76c1.57,0,2.53-.86,2.53-3.03v-.68c0-2.07-.93-2.75-2.53-2.75h-.56v6.45h.56Z"/>
  <rect class="cls-1" x="84.13" y=".53" width="7.44" height="24.23"/>
  <path class="cls-1" d="M93.42,18.15V.49h7.44v17.32c0,1.27.68,1.98,1.91,1.98s1.91-.71,1.91-1.98V.49h7.44v17.66c0,4.51-3.09,7.1-9.39,7.1s-9.32-2.59-9.32-7.1"/>
  <path class="cls-1" d="M113.52,18.06v-.53h7.5v.8c0,1.36.62,2.01,1.64,2.01.93,0,1.54-.56,1.54-1.85,0-1.48-.74-1.94-2.19-2.65l-2.87-1.45c-3.18-1.6-5.43-3.15-5.43-7.13C113.7,2.28,117.68.03,122.78.03c4.54,0,8.77,2.04,8.77,6.95v.43h-7.29v-.52c0-1.33-.65-1.94-1.57-1.94s-1.51.56-1.51,1.51c0,1.24.74,1.67,1.95,2.29l2.69,1.36c3.61,1.85,6.05,3.43,6.05,7.81,0,5.15-3.8,7.28-9.14,7.28-5.59.06-9.2-2.28-9.2-7.13"/>
</svg>