<?xml version="1.0" encoding="UTF-8"?>
<svg id="Isolation_Mode" data-name="Isolation Mode" xmlns="http://www.w3.org/2000/svg" viewBox="0 0 720 340">
  <defs>
    <style>
      .cls-1 {
        fill: #fff;
      }
    </style>
  </defs>
  <g>
    <path class="cls-1" d="M26.42,56.65l22.94-26.82c3.44-3.98,5.74-7.56,5.74-11.05,0-4.88-3.11-8.21-8.44-8.21s-8.36,3.33-8.36,9.18h-11.88C26.42,8.05,35.03,0,46.82,0s20.15,8.05,20.15,18.13c0,4.55-1.23,8.29-5,13.09l-8.93,11.54c-1.39,1.79-3.03,3.74-5.08,5.2h19.34v10H26.42v-1.3Z"/>
    <path class="cls-1" d="M71.4,54.62l4.18-9.92c3.61,2.11,7.95,3.74,13.03,3.74,7.54,0,11.14-3.49,11.14-8.94s-3.19-9.35-11.96-9.35c-4.75,0-8.93,1.3-13.27,3.58L79.84,1.06h27.2v10h-18.27l-1.56,10.08c1.64-.57,3.2-.57,4.83-.57,13.68,0,19.58,9.1,19.58,18.94,0,11.3-9.01,19.51-22.2,19.51-6.39,0-11.72-.89-18.02-4.39Z"/>
    <path class="cls-1" d="M127.27,74.13l1.64-10.49c1.64.41,3.2.57,5,.57,4.26,0,6.96-2.68,8.19-6.42l.57-1.79-16.88-40.31h13.35l8.27,24.14c.74,2.03,1.39,4.55,1.8,6.75.41-2.19,1.06-4.71,1.8-6.75l8.27-24.14h13.11l-18.84,44.95c-3.61,8.53-8.93,14.31-18.93,14.31-2.21,0-5.16-.16-7.37-.81Z"/>
    <path class="cls-1" d="M170.12,36.9c0-12.19,9.26-22.27,22.04-22.27s21.63,10.08,21.63,22.27c0,1.22-.08,2.52-.33,3.9h-31.87c1.23,4.96,5,8.45,10.57,8.45,4.75,0,8.44-2.44,10.4-5.69l8.6,6.42c-3.44,5.28-10.57,9.02-19.01,9.02-13.19,0-22.04-9.92-22.04-22.11ZM202.64,32.59c-1.23-4.71-5.24-8.53-10.65-8.53s-9.18,3.49-10.4,8.53h21.06Z"/>
    <path class="cls-1" d="M216.4,36.98c0-12.19,9.34-22.19,21.06-22.19,7.37,0,11.22,3.01,13.52,7.56v-6.66h10.98v42.26h-10.73v-6.91c-2.29,4.8-6.14,7.97-13.76,7.97-11.72,0-21.06-9.83-21.06-22.03ZM239.26,49.09c7.29,0,11.96-5.53,11.96-12.11s-4.67-12.27-11.96-12.27-11.8,5.61-11.8,12.19,4.75,12.19,11.8,12.19Z"/>
    <path class="cls-1" d="M268.51,15.69h10.73v8.05c1.47-6.1,5.82-9.43,13.19-9.02v10.32h-1.56c-6.39,0-11.31,4.23-11.31,11.3v21.62h-11.06V15.69Z"/>
    <path class="cls-1" d="M291.94,51.61l7.46-6.75c3.11,3.49,6.39,5.2,9.99,5.2s5.9-1.87,5.9-4.39c0-2.19-1.06-3.41-7.78-4.96-11.39-2.68-13.11-7.8-13.11-13.17,0-7.4,5.9-12.92,15.89-12.92,6.88,0,11.47,1.71,15.81,7.32l-8.03,6.1c-2.05-3.25-4.67-4.55-7.54-4.55-3.03,0-5.33,1.14-5.33,3.74,0,1.46.66,2.76,5.74,4.06,12.37,3.17,15.24,7.72,15.24,14.06,0,7.8-7.13,13.65-16.55,13.65-7.21,0-13.03-2.44-17.7-7.4Z"/>
  </g>
  <g>
    <path class="cls-1" d="M0,107.54c0-8.39,6.54-15.27,15.62-15.27s15.62,6.88,15.62,15.27-6.54,15.22-15.62,15.22S0,115.93,0,107.54ZM15.62,115.87c4.85,0,8.01-3.81,8.01-8.34s-3.16-8.39-8.01-8.39-8.01,3.86-8.01,8.39,3.16,8.34,8.01,8.34Z"/>
    <path class="cls-1" d="M45.86,81.18h3.16v6.43h-1.97c-2.26,0-3.33,1.17-3.33,3.47v1.85h5.98v6.43h-5.98v22.66h-7.61v-22.66h-4.12v-6.43h4.12v-1.96c0-5.87,3.83-9.79,9.76-9.79Z"/>
  </g>
  <g>
    <path class="cls-1" d="M488.4,117.6c-.68,2.42-.14,5.24.32,7.73,2.09,11.23,7.21,21.68,8.17,33.14.08.9-.05,2.07-.92,2.31-.46.13-.95-.08-1.38-.29-1.48-.7-2.96-1.4-4.44-2.1.12,13.56.24,27.11.37,40.67.08,8.79-2.36,24.6,5.87,30.72,6.51,3.75,13.22,1.48,18.79-2.66l8.18-10.09c.51,4.51,9.13,14.37,13.76,12.25,2.06-.94,12.08-18.1,14.86-21.68,12.99-16.76,35.21-36.64,58.12-35.82,8.94.32,26.45,16.81,31.12,24.3,4.01,6.42,3.37,10.54.92,17.61-8.78,25.32-43.18,32.45-66.49,37-12.78,2.5-26.96,4.06-39.95,4.15-2.18,14.29-1.91,44.42,11.77,53.11,5.61,3.56,20.66,4.04,27.42,3.61,40.91-2.64,84.36-25.35,114.76-51.45,2.07-1.78,15.98-15.08,16.18-16.21.03-1.12-1.36-2.15-2.25-2.53-1.4-.58-7.43-1.18-9.32-1.26-9.59-.43-16.49,1.45-26.52-1.01-7.21-1.77-9.96-5.25-10.57-12.62-.65-7.93,5.55-31.67,9.74-38.64,4.86-8.1,10.54-10.13,19.81-7.47,11.91,3.41,33.15,34.44,33.28,46.83.1,9.7-10.74,26.64-16.37,34.88-24.51,35.89-75.81,61.84-117.75,70.9-18.25,3.94-38.2,8-51.17-8.85-9.57-12.43-9.36-33.54-8.18-48.6.6-7.67,2.08-15.34,2.86-23-5-1.78-7.05-6.09-10.89-8.82-2.82,2.45-5.03,5.24-8.28,7.24-2.14,1.32-8.07,4.05-10.36,4.46-4.16.76-10.26-1.63-14.29-2.66-4.16,22.13-16.14,40.06-34.8,52.68-25.41,17.18-89.63,43.33-119.12,31.69-32.52-12.84-23.13-66.35-12.15-91.14,1.37-3.09,3.14-7.89,7.18-7.22,1.26,1.25-4.99,19.55-5.75,22.65-3.57,14.58-6.83,42.44,7.64,52.16,15.22,10.22,52.5.51,69.27-4.6,32.66-9.95,76.87-24.65,80.65-63.57,2.2-22.69,1.03-45.26.01-67.93-.76-17.02-2.9-28.82,2.32-45.31.75-2.37,4.33-12.82,5.39-14.12.65-.8,1.34-.38,2.17-.43ZM584.94,190.57c-11.14,2.28-30.48,24.03-36.81,33.52-1.48,2.22-4.94,6.03-2.51,7.96,3.4,2.71,19.87.22,24.82-.54,18.74-2.91,38.03-8.78,56.05-14.46,3.67-5.31-15.76-20.61-19.94-23.02-5.79-3.33-15.09-4.8-21.61-3.47ZM697.41,222.63c2.01-8.49-17.05-22.19-23.49-20.89-3.95.8-6.84,13.1-5.31,16.16,3.07,6.16,9.58,3.31,14.32,3.47,2.02.07,13.97,1.77,14.48,1.26Z"/>
    <path class="cls-1" d="M259.94,196.76v-10.24c-14.1,11.02-27.88,16.3-46.06,12.62-44.92-9.11-55.87-72.32-26.73-102.97,19.86-20.89,52.46-21.39,72.78-.92v-12.11h27.24v113.62h-27.23ZM224.96,104.8c-36.42,4.94-35.24,71.45,5.23,71.11,44.98-.38,40.89-77.37-5.23-71.11Z"/>
    <path class="cls-1" d="M373.45,103.52l-21.02,11.2c-4.42-5.8-11.6-14.75-19.46-8.31-6.04,4.95-.81,11.03,4.03,14.38,17.12,11.86,43.47,11.84,44.13,40.08,1.09,46.82-68.56,53.56-81.74,10.79l22.93-10.35c4.63,8.06,7.41,14.28,18.05,14.61,15.69.48,16.82-16.17,4.96-23.34-20.75-12.54-46.85-14.47-38.77-47.89,7.65-31.66,58.18-32.89,66.9-1.17Z"/>
    <polygon class="cls-1" points="88.56 83.14 117.68 145.54 147.72 83.14 176.36 83.14 118.6 204.22 58.98 83.14 88.56 83.14"/>
    <polygon class="cls-1" points="418.64 196.76 391.41 196.76 391.41 1.65 392.82 .26 417.23 .26 418.64 1.65 418.64 196.76"/>
    <g>
      <path class="cls-1" d="M491.24,19.83h5.24l-15.55,36.63h-1.19l-15.85-36.63h5.3l11.06,25.61,10.98-25.61Z"/>
      <path class="cls-1" d="M511.83,41.87v10.21c0,.82.28,1.23.84,1.23s1.48-.43,2.71-1.28v2.9c-1.09.7-1.96,1.17-2.62,1.42-.66.25-1.35.38-2.07.38-2.05,0-3.26-.8-3.63-2.4-2.04,1.57-4.2,2.35-6.5,2.35-1.69,0-3.09-.55-4.21-1.66s-1.68-2.49-1.68-4.16c0-1.52.55-2.87,1.64-4.06,1.1-1.19,2.65-2.14,4.67-2.83l6.13-2.09v-1.28c0-2.89-1.46-4.33-4.37-4.33-2.62,0-5.16,1.34-7.63,4.02v-5.2c1.86-2.18,4.54-3.26,8.03-3.26,2.61,0,4.71.68,6.29,2.04.53.44,1,1.01,1.42,1.74.42.72.69,1.44.8,2.17.11.72.17,2.09.17,4.11ZM507.12,51.56v-7.13l-3.21,1.23c-1.63.64-2.79,1.29-3.46,1.94-.68.65-1.01,1.47-1.01,2.44s.32,1.8.96,2.43c.64.63,1.47.94,2.49.94,1.53,0,2.94-.62,4.24-1.85Z"/>
      <path class="cls-1" d="M518.43,54.59v-5.12c1.35.94,2.73,1.7,4.15,2.28,1.41.58,2.6.87,3.57.87s1.86-.24,2.58-.73c.72-.49,1.08-1.07,1.08-1.75s-.23-1.28-.7-1.74-1.47-1.13-3.01-2c-3.09-1.71-5.11-3.16-6.07-4.37s-1.43-2.53-1.43-3.96c0-1.84.72-3.35,2.17-4.52,1.45-1.17,3.31-1.75,5.59-1.75s4.8.66,7.29,1.98v4.7c-2.84-1.71-5.17-2.56-6.98-2.56-.93,0-1.68.2-2.25.59-.57.39-.85.91-.85,1.56,0,.56.26,1.09.78,1.6.52.51,1.42,1.11,2.72,1.83l1.71.97c4.04,2.26,6.06,4.77,6.06,7.52,0,1.97-.78,3.58-2.33,4.84-1.55,1.26-3.55,1.89-5.99,1.89-1.44,0-2.72-.15-3.84-.46s-2.54-.87-4.24-1.68Z"/>
      <path class="cls-1" d="M540.46,19.83h4.79v36.48h-4.79V19.83Z"/>
      <path class="cls-1" d="M574.15,19.62h3.7l16.49,36.69h-5.39l-4.9-10.81h-15.69l-4.59,10.81h-5.41l15.79-36.69ZM581.89,40.85l-5.93-13.21-5.5,13.21h11.43Z"/>
      <path class="cls-1" d="M602.84,32.29v5.51l.26-.42c2.32-3.71,4.63-5.56,6.95-5.56,1.81,0,3.69.9,5.66,2.72l-2.53,4.18c-1.67-1.57-3.21-2.35-4.63-2.35-1.54,0-2.88.73-4.01,2.19-1.13,1.46-1.7,3.19-1.7,5.2v12.56h-4.82v-24.02h4.82Z"/>
      <path class="cls-1" d="M616.74,36.1l9-8.77v4.96h7.66v4.28h-7.66v11.76c0,2.75,1.15,4.12,3.45,4.12,1.72,0,3.53-.57,5.45-1.7v4.44c-1.84,1.03-3.85,1.54-6.03,1.54s-4.02-.63-5.47-1.91c-.46-.38-.83-.81-1.13-1.29s-.55-1.11-.75-1.88c-.2-.77-.3-2.25-.3-4.43v-10.65h-4.21v-.47Z"/>
      <path class="cls-1" d="M640.56,22.18c.79,0,1.46.27,2.03.81.56.54.84,1.2.84,1.98s-.28,1.43-.84,1.98c-.56.56-1.24.83-2.03.83-.74,0-1.39-.28-1.95-.85-.56-.57-.84-1.22-.84-1.97s.28-1.38.84-1.94c.56-.57,1.21-.85,1.95-.85ZM638.19,32.29h4.79v24.02h-4.79v-24.02Z"/>
      <path class="cls-1" d="M648.71,54.59v-5.12c1.35.94,2.73,1.7,4.15,2.28,1.41.58,2.6.87,3.57.87s1.86-.24,2.58-.73c.72-.49,1.08-1.07,1.08-1.75s-.23-1.28-.7-1.74-1.47-1.13-3.01-2c-3.09-1.71-5.11-3.16-6.07-4.37s-1.43-2.53-1.43-3.96c0-1.84.72-3.35,2.17-4.52,1.45-1.17,3.31-1.75,5.59-1.75s4.8.66,7.29,1.98v4.7c-2.84-1.71-5.17-2.56-6.98-2.56-.93,0-1.68.2-2.25.59-.57.39-.85.91-.85,1.56,0,.56.26,1.09.78,1.6.52.51,1.42,1.11,2.72,1.83l1.71.97c4.04,2.26,6.06,4.77,6.06,7.52,0,1.97-.78,3.58-2.33,4.84-1.55,1.26-3.55,1.89-5.99,1.89-1.44,0-2.72-.15-3.84-.46s-2.54-.87-4.24-1.68Z"/>
      <path class="cls-1" d="M667.24,36.1l9-8.77v4.96h7.66v4.28h-7.66v11.76c0,2.75,1.15,4.12,3.45,4.12,1.72,0,3.53-.57,5.45-1.7v4.44c-1.84,1.03-3.85,1.54-6.03,1.54s-4.02-.63-5.47-1.91c-.46-.38-.83-.81-1.13-1.29s-.55-1.11-.75-1.88c-.2-.77-.3-2.25-.3-4.43v-10.65h-4.21v-.47Z"/>
      <path class="cls-1" d="M687.4,54.59v-5.12c1.35.94,2.73,1.7,4.15,2.28,1.41.58,2.6.87,3.57.87s1.86-.24,2.58-.73c.72-.49,1.08-1.07,1.08-1.75s-.23-1.28-.7-1.74-1.47-1.13-3.01-2c-3.09-1.71-5.11-3.16-6.07-4.37s-1.43-2.53-1.43-3.96c0-1.84.72-3.35,2.17-4.52,1.45-1.17,3.31-1.75,5.59-1.75s4.8.66,7.29,1.98v4.7c-2.84-1.71-5.17-2.56-6.98-2.56-.93,0-1.68.2-2.25.59-.57.39-.85.91-.85,1.56,0,.56.26,1.09.78,1.6.52.51,1.42,1.11,2.72,1.83l1.71.97c4.04,2.26,6.06,4.77,6.06,7.52,0,1.97-.78,3.58-2.33,4.84-1.55,1.26-3.55,1.89-5.99,1.89-1.44,0-2.72-.15-3.84-.46s-2.54-.87-4.24-1.68Z"/>
      <path class="cls-1" d="M708.56,32.63v-1.02c.79-.77,1.34-1.52,1.66-2.27.32-.75.5-1.78.55-3.08-1.86-.59-2.79-1.73-2.79-3.42,0-.96.32-1.78.96-2.45.64-.68,1.4-1.02,2.28-1.02,1.07,0,1.95.47,2.63,1.41.68.94,1.03,2.14,1.03,3.6,0,1.95-.56,3.66-1.68,5.13-1.12,1.47-2.67,2.51-4.63,3.12Z"/>
      <path class="cls-1" d="M477.27,68.92h3.7l16.49,36.69h-5.39l-4.9-10.81h-15.69l-4.59,10.81h-5.41l15.79-36.69ZM485.01,90.15l-5.93-13.21-5.5,13.21h11.43Z"/>
      <path class="cls-1" d="M499.64,103.88v-5.12c1.35.94,2.73,1.7,4.15,2.28,1.41.58,2.6.87,3.57.87s1.86-.24,2.58-.73c.72-.49,1.08-1.07,1.08-1.75s-.23-1.28-.7-1.74-1.47-1.13-3.01-2c-3.09-1.71-5.11-3.16-6.07-4.37s-1.43-2.53-1.43-3.96c0-1.84.72-3.35,2.17-4.52,1.45-1.17,3.31-1.75,5.59-1.75s4.8.66,7.29,1.98v4.7c-2.84-1.71-5.17-2.56-6.98-2.56-.93,0-1.68.2-2.25.59-.57.39-.85.91-.85,1.56,0,.56.26,1.09.78,1.6.52.51,1.42,1.11,2.72,1.83l1.71.97c4.04,2.26,6.06,4.77,6.06,7.52,0,1.97-.78,3.58-2.33,4.84-1.55,1.26-3.55,1.89-5.99,1.89-1.44,0-2.72-.15-3.84-.46s-2.54-.87-4.24-1.68Z"/>
      <path class="cls-1" d="M520.38,103.88v-5.12c1.35.94,2.73,1.7,4.15,2.28,1.41.58,2.6.87,3.57.87s1.86-.24,2.58-.73c.72-.49,1.08-1.07,1.08-1.75s-.23-1.28-.7-1.74-1.47-1.13-3.01-2c-3.09-1.71-5.11-3.16-6.07-4.37s-1.43-2.53-1.43-3.96c0-1.84.72-3.35,2.17-4.52,1.45-1.17,3.31-1.75,5.59-1.75s4.8.66,7.29,1.98v4.7c-2.84-1.71-5.17-2.56-6.98-2.56-.93,0-1.68.2-2.25.59-.57.39-.85.91-.85,1.56,0,.56.26,1.09.78,1.6.52.51,1.42,1.11,2.72,1.83l1.71.97c4.04,2.26,6.06,4.77,6.06,7.52,0,1.97-.78,3.58-2.33,4.84-1.55,1.26-3.55,1.89-5.99,1.89-1.44,0-2.72-.15-3.84-.46s-2.54-.87-4.24-1.68Z"/>
      <path class="cls-1" d="M553.89,81.53c3.68,0,6.75,1.18,9.19,3.54s3.66,5.32,3.66,8.89-1.24,6.34-3.71,8.63-5.59,3.43-9.34,3.43-6.67-1.16-9.11-3.49c-2.44-2.32-3.66-5.23-3.66-8.71s1.23-6.45,3.7-8.79c2.46-2.34,5.56-3.51,9.28-3.51ZM553.63,85.81c-2.3,0-4.19.75-5.66,2.25-1.47,1.5-2.21,3.4-2.21,5.72s.75,4.17,2.26,5.63c1.51,1.45,3.45,2.18,5.82,2.18s4.28-.73,5.78-2.21c1.5-1.47,2.25-3.36,2.25-5.65s-.78-4.17-2.34-5.67c-1.56-1.5-3.53-2.25-5.89-2.25Z"/>
      <path class="cls-1" d="M590.21,99.99v4.7c-2.4.89-4.76,1.33-7.05,1.33-3.79,0-6.81-1.11-9.07-3.34s-3.38-5.21-3.38-8.96,1.1-6.82,3.29-9.14c2.19-2.31,5.08-3.47,8.66-3.47,1.25,0,2.36.12,3.36.35.99.23,2.21.67,3.67,1.32v5.07c-2.42-1.53-4.67-2.3-6.74-2.3s-3.93.75-5.32,2.26c-1.39,1.51-2.08,3.43-2.08,5.76,0,2.45.75,4.4,2.25,5.85,1.5,1.45,3.52,2.17,6.07,2.17,1.84,0,3.96-.53,6.34-1.59Z"/>
      <path class="cls-1" d="M598.13,71.48c.79,0,1.46.27,2.03.81.56.54.84,1.2.84,1.98s-.28,1.43-.84,1.98c-.56.56-1.24.83-2.03.83-.74,0-1.39-.28-1.95-.85-.56-.57-.84-1.22-.84-1.97s.28-1.38.84-1.94c.56-.57,1.21-.85,1.95-.85ZM595.76,81.58h4.79v24.02h-4.79v-24.02Z"/>
      <path class="cls-1" d="M622.69,91.17v10.21c0,.82.28,1.23.84,1.23s1.48-.43,2.71-1.28v2.9c-1.09.7-1.96,1.17-2.62,1.42-.66.25-1.35.38-2.07.38-2.05,0-3.26-.8-3.63-2.4-2.04,1.57-4.2,2.35-6.5,2.35-1.69,0-3.09-.55-4.21-1.66-1.12-1.11-1.68-2.49-1.68-4.16,0-1.52.55-2.87,1.64-4.06,1.1-1.19,2.65-2.14,4.67-2.83l6.13-2.09v-1.28c0-2.89-1.46-4.33-4.37-4.33-2.62,0-5.16,1.34-7.63,4.02v-5.2c1.86-2.18,4.54-3.26,8.03-3.26,2.61,0,4.71.68,6.29,2.04.53.44,1,1.01,1.42,1.74.42.72.69,1.44.8,2.17.11.72.17,2.09.17,4.11ZM617.98,100.85v-7.13l-3.21,1.23c-1.63.64-2.79,1.29-3.46,1.94-.68.65-1.01,1.47-1.01,2.44s.32,1.8.96,2.43c.64.63,1.47.94,2.49.94,1.53,0,2.94-.62,4.24-1.85Z"/>
      <path class="cls-1" d="M627.08,85.39l9-8.77v4.96h7.66v4.28h-7.66v11.76c0,2.75,1.15,4.12,3.45,4.12,1.72,0,3.53-.57,5.45-1.7v4.44c-1.84,1.03-3.85,1.54-6.03,1.54s-4.02-.63-5.47-1.91c-.46-.38-.83-.81-1.13-1.29-.3-.48-.55-1.11-.75-1.88-.2-.77-.3-2.25-.3-4.43v-10.65h-4.21v-.47Z"/>
      <path class="cls-1" d="M650.9,71.48c.79,0,1.46.27,2.03.81.56.54.84,1.2.84,1.98s-.28,1.43-.84,1.98c-.56.56-1.24.83-2.03.83-.74,0-1.39-.28-1.95-.85-.56-.57-.84-1.22-.84-1.97s.28-1.38.84-1.94c.56-.57,1.21-.85,1.95-.85ZM648.53,81.58h4.79v24.02h-4.79v-24.02Z"/>
      <path class="cls-1" d="M671.83,81.53c3.68,0,6.75,1.18,9.19,3.54,2.44,2.36,3.66,5.32,3.66,8.89s-1.24,6.34-3.71,8.63c-2.47,2.29-5.59,3.43-9.34,3.43s-6.67-1.16-9.11-3.49c-2.44-2.32-3.66-5.23-3.66-8.71s1.23-6.45,3.7-8.79c2.46-2.34,5.56-3.51,9.28-3.51ZM671.56,85.81c-2.3,0-4.19.75-5.66,2.25-1.47,1.5-2.21,3.4-2.21,5.72s.75,4.17,2.26,5.63c1.51,1.45,3.45,2.18,5.82,2.18s4.28-.73,5.78-2.21c1.5-1.47,2.25-3.36,2.25-5.65s-.78-4.17-2.34-5.67c-1.56-1.5-3.53-2.25-5.89-2.25Z"/>
      <path class="cls-1" d="M694.78,81.58v3.05c2.14-2.35,4.57-3.52,7.29-3.52,1.51,0,2.91.39,4.21,1.16,1.3.77,2.28,1.84,2.96,3.19.68,1.35,1.01,3.49,1.01,6.41v13.73h-4.79v-13.68c0-2.45-.38-4.21-1.13-5.26-.75-1.05-2.02-1.58-3.79-1.58-2.26,0-4.18,1.12-5.76,3.37v17.16h-4.89v-24.02h4.89Z"/>
    </g>
  </g>
</svg>