<?xml version="1.0" encoding="UTF-8"?>
<svg id="Layer_1" data-name="Layer 1" xmlns="http://www.w3.org/2000/svg" viewBox="0 0 110.83 40.29">
  <defs>
    <style>
      .cls-1 {
        fill: #dcfffe;
        stroke-width: 0px;
      }
    </style>
  </defs>
  <path class="cls-1" d="M35.85,7.09c1.52-.87,3.1-.98,4.32-.26V.15h-12.04c.13.35.22.74.24,1.24.2,4.67-1.16,11.1-4.32,17.02-6.74-.72-13.39-2.79-16.34-5.72-1.38-1.37-.88-3.18-.05-4.49C9.79,4.84,14.4,1.83,19.2.13H0v21.78c1.09-1.25,2.84-2.16,5.72-2.58,4.04-.59,11.09-.4,17.52.5-3.86,6.55-9.95,12.28-18.59,14.09-2.16.46-3.66.02-4.65-.94v7.28h8.81c4.58-.65,9.67-10.23,11.1-13.37l1.64-.96c-2.14,5.17-5.1,11.17-7.83,14.33h26.48v-23.72c-3.29,1.85-8.72,2.43-14.31,2.07,2.4-4.71,5.87-9.14,9.97-11.5M36.5,24.02c1.26,1.22,1.14,2.4.19,3.75-2.37,3.34-8.44,5.98-12,6.37-1.85.2-2.27-.87-2.36-2.1-.22-3.12.83-7.53,2.81-11.87,5.15.83,9.62,2.14,11.37,3.86"/>
  <path class="cls-1" d="M49.48,9.29l3.25-.09v1.72c0,.35-.18.52-.55.52h-4.97c-.37,0-.55-.17-.55-.52V.67c0-.35.18-.52.55-.52h2.27v9.14Z"/>
  <path class="cls-1" d="M57.42,0c-2.77,0-4.54,1.79-4.54,5.78s1.77,5.78,4.54,5.78,4.52-1.79,4.52-5.78c.02-3.99-1.76-5.78-4.52-5.78M57.42,9.29c-1.03,0-1.64-.91-1.64-3.51s.61-3.51,1.64-3.51,1.64.9,1.64,3.51c.02,2.6-.61,3.51-1.64,3.51"/>
  <path class="cls-1" d="M71.77,2.36v8.53c0,.35.19.52.55.52h1.72c.37,0,.55-.17.55-.52V2.36h1.94c.37,0,.55-.17.55-.52V.13h-14.64c-.37,0-.55.17-.55.52v1.2c0,.35.18.52.55.52h1.94v8.53c0,.35.18.52.55.52h1.72c.37,0,.55-.17.55-.52V2.36h4.56Z"/>
  <path class="cls-1" d="M81.53,0c-2.77,0-4.54,1.79-4.54,5.78s1.77,5.78,4.54,5.78,4.52-1.79,4.52-5.78c.02-3.99-1.76-5.78-4.52-5.78M81.53,9.29c-1.03,0-1.64-.91-1.64-3.51s.61-3.51,1.64-3.51,1.64.9,1.64,3.51-.61,3.51-1.64,3.51"/>
  <path class="cls-1" d="M53.27,17.28l-2.01.57c-.22-.65-.46-1.24-1.29-1.24-.5,0-.87.26-.87.77,0,1.94,4.74,1.7,4.74,5.5,0,1.81-1.18,3.16-4.04,3.16-3.21,0-3.82-2.25-3.82-2.7,0-.24.09-.35.31-.42l1.6-.59c.35-.13.46-.06.55.22.22.57.53,1.35,1.42,1.35.74,0,1.13-.26,1.13-.89,0-1.99-4.71-1.9-4.71-5.54,0-1.85,1.7-3.01,3.91-3.01,2.84,0,3.38,2.03,3.38,2.45.04.17-.06.29-.31.35"/>
  <path class="cls-1" d="M61.89,16.32c0,.35-.19.52-.55.52h-1.94v8.53c0,.35-.19.52-.55.52h-1.72c-.37,0-.55-.17-.55-.52v-8.53h-1.92c-.37,0-.55-.17-.55-.52v-1.2c0-.35.18-.52.55-.52h7.26v1.72h-.02Z"/>
  <path class="cls-1" d="M65.66,25.39c0,.35-.19.52-.55.52h-1.72c-.37,0-.55-.16-.55-.52v-10.25c0-.35.18-.52.55-.52h2.27v10.76Z"/>
  <path class="cls-1" d="M75.77,16.84v8.53c0,.35.19.52.55.52h1.72c.37,0,.55-.16.55-.52v-8.53h1.94c.37,0,.55-.17.55-.52v-1.72h-13.07c-.37,0-.55.17-.55.52v10.25c0,.35.18.52.55.52h1.86c.37,0,.41-.16.41-.52v-3.32h2.33c.37,0,.55-.17.55-.52v-1.72h-2.9v-2.97h5.5Z"/>
  <path class="cls-1" d="M90.49,21.88c0,2.58-1.42,4.15-4.5,4.15-2.79,0-4.06-1.29-4.06-4.15v-6.74c0-.35.18-.52.55-.52h2.27v7.44c0,1.13.45,1.7,1.42,1.7s1.51-.57,1.51-1.7v-6.92c0-.35.18-.52.55-.52h2.21v7.26h.04Z"/>
  <path class="cls-1" d="M100.81,25.39c0,.35-.19.52-.55.52h-1.51c-.42,0-.57-.05-.83-.52l-2.95-5.45h-.04v5.45c0,.35-.18.52-.55.52h-1.61c-.37,0-.55-.16-.55-.52v-10.25c0-.35.19-.52.55-.52h2.18l3.12,5.78h.04v-5.24c0-.35.18-.51.55-.51h2.18v10.74h-.02Z"/>
  <path class="cls-1" d="M110.78,23.87c0,.26-.04.42-.19.63-.4.54-1.48,1.53-3.73,1.53-2.79,0-4.71-1.44-4.71-5.85,0-3.95,2.16-5.72,4.82-5.72,3.21,0,3.86,2.31,3.86,3.08,0,.26-.09.43-.55.5l-1.77.29c-.2-.74-.54-1.61-1.59-1.61s-1.86.76-1.86,3.45c0,2.92.83,3.64,2.05,3.64.63,0,.94-.22,1.09-.33v-1.77h-.81c-.37,0-.55-.17-.55-.52v-.96c0-.35.18-.52.55-.52h3.41v4.15h-.02Z"/>
  <path class="cls-1" d="M52.6,34.53v-.03c1.09-.31,1.95-1.22,1.95-2.46,0-2.09-1.4-3.05-4.51-3.05h-2.84c-.37,0-.55.17-.55.52v10.25c0,.35.18.52.55.52h2.93c2.6,0,4.67-.56,4.67-3.25,0-1.53-1.09-2.22-2.21-2.49M49.44,31.22h.96c.85,0,1.38.41,1.38,1.16s-.57,1.16-1.38,1.16h-.96v-2.33ZM50.42,38.05h-.98v-2.36h1.03c.96,0,1.53.24,1.53,1.15-.02.83-.55,1.22-1.59,1.22"/>
  <path class="cls-1" d="M62.96,30.71c0,.35-.19.52-.55.52h-3.36v2.27h3.31v1.72c0,.35-.18.52-.55.52h-2.75v2.31h4.08v1.72c0,.35-.18.52-.55.52h-5.8c-.37,0-.55-.17-.55-.52v-10.25c0-.35.19-.52.55-.52h6.2v1.72h-.02Z"/>
  <path class="cls-1" d="M72.91,39.53l-1.86-4.04c.92-.57,1.53-1.53,1.53-2.95,0-2.47-1.51-3.54-4.54-3.54h-3.01c-.37,0-.56.17-.56.52v10.25c0,.35.19.52.56.52h1.72c.37,0,.56-.16.56-.52v-3.51h1.16l1.22,3.25c.22.59.31.78.85.78h1.79c.61.02.9-.09.59-.74M67.89,34.06h-.59v-2.84h.77c1.03,0,1.61.37,1.61,1.4.02,1.13-.83,1.44-1.79,1.44"/>
  <path class="cls-1" d="M77.08,38.05h3.25v1.72c0,.35-.18.52-.55.52h-4.95c-.37,0-.55-.17-.55-.52v-10.25c0-.35.18-.52.55-.52h2.27v9.05h-.02Z"/>
  <path class="cls-1" d="M84.19,39.75c0,.35-.19.52-.55.52h-1.72c-.37,0-.55-.16-.55-.52v-10.25c0-.35.18-.52.55-.52h2.27v10.76Z"/>
  <path class="cls-1" d="M94.62,39.75c0,.35-.19.52-.55.52h-1.51c-.42,0-.57-.05-.83-.52l-2.95-5.45h-.04v5.45c0,.35-.18.52-.55.52h-1.61c-.37,0-.55-.16-.55-.52v-10.25c0-.35.19-.52.55-.52h2.18l3.12,5.76h.04v-5.24c0-.35.18-.52.55-.52h2.18v10.76h-.02Z"/>
</svg>