<?xml version="1.0" encoding="UTF-8"?>
<svg id="Layer_1" data-name="Layer 1" xmlns="http://www.w3.org/2000/svg" viewBox="0 0 374.38 43.16">
  <defs>
    <style>
      .cls-1 {
        fill: #dcfffe;
        stroke-width: 0px;
      }
    </style>
  </defs>
  <path class="cls-1" d="M5.29,5.6c0,.31.37.43.74.49l.68.12c3.33.68,4.68,2.89,4.68,5.29,0,3.33-2.52,5.79-5.6,5.79S.18,14.78.18,11.7v-.37h5.17v.37c0,.25.18.43.43.43s.43-.18.43-.43-.25-.37-.55-.43l-.68-.12C1.54,10.53.18,8,.18,5.66.18,2.46,2.71,0,5.79,0s5.6,2.52,5.6,5.6v.49h-5.17v-.43c0-.25-.18-.43-.43-.43-.31,0-.49.12-.49.37"/>
  <path class="cls-1" d="M38.23.43h-4.31l-6.03,16.5h5.42l.55-1.54h4.37l.55,1.54h5.42L38.23.43ZM35.71,10.28l.31-.8.31.8h-.62Z"/>
  <polygon class="cls-1" points="57.56 .43 62.98 .43 65.69 7.94 68.46 .43 73.88 .43 67.85 16.93 63.54 16.93 57.56 .43"/>
  <polygon class="cls-1" points="89.83 .43 95.24 .43 97.95 7.94 100.72 .43 106.14 .43 100.11 16.93 95.86 16.93 89.83 .43"/>
  <polygon class="cls-1" points="127.13 16.93 127.13 10.71 121.22 .43 127.07 .43 129.72 4.99 132.31 .43 138.22 .43 132.31 10.71 132.31 16.93 127.13 16.93"/>
  <path class="cls-1" d="M167.09,6.22c-.62-.62-1.48-.99-2.46-.99-1.91,0-3.45,1.54-3.45,3.45s1.54,3.45,3.45,3.45c.92,0,1.79-.37,2.4-.98l3.63,3.63c-1.54,1.54-3.69,2.46-6.03,2.46-4.74,0-8.62-3.88-8.62-8.62S159.89,0,164.63,0c2.34,0,4.49.99,6.1,2.52l-3.63,3.69Z"/>
  <path class="cls-1" d="M179.28.06h-.74c-3.08,0-5.6,2.52-5.6,5.6v6.03c0,3.08,2.52,5.6,5.6,5.6h.74c3.08,0,5.6-2.52,5.6-5.6v-6.03c0-3.08-2.53-5.6-5.6-5.6M179.71,11.7c0,.25-.18.43-.43.43h-.74c-.25,0-.43-.18-.43-.43v-6.03c0-.25.18-.43.43-.43h.74c.25,0,.43.18.43.43v6.03Z"/>
  <polygon class="cls-1" points="195.53 16.93 192.39 11.45 192.39 16.93 187.22 16.93 187.22 .43 191.9 .43 194.86 5.54 194.86 .43 211.79 .43 211.79 5.54 208.46 5.54 208.46 16.93 203.29 16.93 203.29 5.54 200.03 5.54 200.03 16.93 195.53 16.93"/>
  <polygon class="cls-1" points="219.36 5.54 219.36 6.03 225.09 6.03 225.09 11.21 219.36 11.21 219.36 11.82 225.09 11.82 225.09 16.93 214.19 16.93 214.19 .43 225.09 .43 225.09 5.54 219.36 5.54"/>
  <polygon class="cls-1" points="237.83 14.96 234.81 14.96 232.91 11.64 232.91 16.93 227.73 16.93 227.73 .43 232.35 .43 236.35 7.39 240.35 .43 244.91 .43 244.91 16.93 239.74 16.93 239.74 11.64 237.83 14.96"/>
  <path class="cls-1" d="M253.59.43h-6.16v16.5h5.17v-5.66h.98c3.02,0,5.42-2.4,5.42-5.42s-2.4-5.42-5.42-5.42M253.59,6.1h-.98v-.55h.98c.18,0,.31.12.31.31s-.12.25-.31.25"/>
  <path class="cls-1" d="M267.38.06h-.74c-3.08,0-5.6,2.52-5.6,5.6v6.03c0,3.08,2.52,5.6,5.6,5.6h.74c3.08,0,5.6-2.52,5.6-5.6v-6.03c0-3.08-2.53-5.6-5.6-5.6M267.81,11.7c0,.25-.18.43-.43.43h-.74c-.25,0-.43-.18-.43-.43v-6.03c0-.25.18-.43.43-.43h.74c.25,0,.43.18.43.43v6.03Z"/>
  <path class="cls-1" d="M283.27,10.77c1.85-.86,3.2-2.71,3.2-4.93,0-3.02-2.46-5.42-5.42-5.42h-6.09v16.5h5.17v-1.91l1.6,1.91h6.77l-5.23-6.16ZM281.05,6.1h-.98v-.55h.98c.18,0,.31.12.31.31s-.12.25-.31.25"/>
  <path class="cls-1" d="M300.63.43h-4.31l-6.03,16.5h5.42l.55-1.54h4.37l.55,1.54h5.42l-5.97-16.5ZM298.17,10.28l.31-.8.31.8h-.62Z"/>
  <path class="cls-1" d="M316.94,10.77c1.85-.86,3.2-2.71,3.2-4.93,0-3.02-2.46-5.42-5.42-5.42h-6.1v16.5h5.17v-1.91l1.6,1.91h6.77l-5.23-6.16ZM314.66,6.1h-.98v-.55h.98c.18,0,.31.12.31.31s-.12.25-.31.25"/>
  <polygon class="cls-1" points="326.61 16.93 326.61 10.71 320.64 .43 326.55 .43 329.19 4.99 331.78 .43 337.69 .43 331.72 10.71 331.72 16.93 326.61 16.93"/>
  <polygon class="cls-1" points="11.76 26.29 11.76 31.4 8.5 31.4 8.5 42.79 3.32 42.79 3.32 31.4 0 31.4 0 26.29 11.76 26.29"/>
  <polygon class="cls-1" points="32.63 26.29 32.63 31.4 27.64 31.4 27.64 31.89 31.71 31.89 31.71 37.06 27.64 37.06 27.64 37.68 32.63 37.68 32.63 42.79 22.47 42.79 22.47 37.06 19.39 37.06 19.39 42.79 14.28 42.79 14.28 26.29 19.39 26.29 19.39 31.89 22.47 31.89 22.47 26.29 32.63 26.29"/>
  <polygon class="cls-1" points="48.7 37.68 53.69 37.68 53.69 42.79 43.53 42.79 43.53 26.29 48.7 26.29 48.7 37.68"/>
  <path class="cls-1" d="M65.88,26.29h-4.31l-6.03,16.5h5.42l.55-1.54h4.37l.55,1.54h5.42l-5.97-16.5ZM63.41,36.14l.31-.8.31.8h-.62Z"/>
  <path class="cls-1" d="M85.08,31.71c0-3.02-2.46-5.42-5.42-5.42h-5.85v16.5h5.85c3.02,0,5.42-2.4,5.42-5.42,0-1.05-.31-2.03-.8-2.83.49-.8.8-1.79.8-2.83M79.67,37.68h-.74v-.55h.74c.18,0,.31.12.31.31-.06.12-.12.25-.31.25M79.67,31.95h-.74v-.55h.74c.18,0,.31.12.31.31s-.12.25-.31.25"/>
  <path class="cls-1" d="M93.7,25.92h-.74c-3.08,0-5.6,2.52-5.6,5.6v6.03c0,3.08,2.52,5.6,5.6,5.6h.74c3.08,0,5.6-2.53,5.6-5.6v-6.03c0-3.08-2.46-5.6-5.6-5.6M94.2,37.56c0,.25-.18.43-.43.43h-.74c-.25,0-.43-.19-.43-.43v-6.03c0-.25.18-.43.43-.43h.74c.25,0,.43.18.43.43v6.03Z"/>
  <path class="cls-1" d="M109.77,36.63c1.85-.86,3.2-2.71,3.2-4.92,0-3.02-2.46-5.42-5.42-5.42h-6.1v16.5h5.17v-1.91l1.6,1.91h6.77l-5.23-6.16ZM107.49,31.95h-.98v-.55h.98c.18,0,.31.12.31.31s-.12.25-.31.25"/>
  <path class="cls-1" d="M127.07,26.29h-4.31l-6.03,16.5h5.42l.55-1.54h4.37l.55,1.54h5.42l-5.97-16.5ZM124.61,36.14l.31-.8.31.8h-.62Z"/>
  <polygon class="cls-1" points="145.17 26.29 145.17 31.4 141.85 31.4 141.85 42.79 136.74 42.79 136.74 31.4 133.41 31.4 133.41 26.29 145.17 26.29"/>
  <path class="cls-1" d="M153.79,25.92h-.74c-3.08,0-5.6,2.52-5.6,5.6v6.03c0,3.08,2.52,5.6,5.6,5.6h.74c3.08,0,5.6-2.53,5.6-5.6v-6.03c0-3.08-2.53-5.6-5.6-5.6M154.22,37.56c0,.25-.18.43-.43.43h-.74c-.25,0-.43-.19-.43-.43v-6.03c0-.25.18-.43.43-.43h.74c.25,0,.43.18.43.43v6.03Z"/>
  <path class="cls-1" d="M169.74,36.63c1.85-.86,3.2-2.71,3.2-4.92,0-3.02-2.46-5.42-5.42-5.42h-6.09v16.5h5.17v-1.91l1.6,1.91h6.77l-5.23-6.16ZM167.52,31.95h-.98v-.55h.98c.18,0,.31.12.31.31s-.12.25-.31.25"/>
  <polygon class="cls-1" points="179.4 42.79 179.4 36.57 173.49 26.29 179.34 26.29 181.99 30.85 184.58 26.29 190.49 26.29 184.58 36.57 184.58 42.79 179.4 42.79"/>
  <path class="cls-1" d="M206.99,25.92h-.8c-3.08,0-5.6,2.52-5.6,5.6v6.03c0,3.08,2.52,5.6,5.6,5.6h.74c3.08,0,5.6-2.53,5.6-5.6v-6.03c.06-3.08-2.46-5.6-5.54-5.6M207.42,37.56c0,.25-.18.43-.43.43h-.8c-.25,0-.43-.19-.43-.43v-6.03c0-.25.18-.43.43-.43h.74c.25,0,.43.18.43.43v6.03h.06Z"/>
  <polygon class="cls-1" points="214.8 26.29 225.46 26.29 225.46 31.4 219.91 31.4 219.91 32.38 225.46 32.38 225.46 37.49 219.91 37.49 219.91 42.79 214.8 42.79 214.8 26.29"/>
  <polygon class="cls-1" points="235.55 26.29 246.2 26.29 246.2 31.4 240.66 31.4 240.66 32.38 246.2 32.38 246.2 37.49 240.66 37.49 240.66 42.79 235.55 42.79 235.55 26.29"/>
  <path class="cls-1" d="M254.76,25.92h-.74c-3.08,0-5.6,2.52-5.6,5.6v6.03c0,3.08,2.52,5.6,5.6,5.6h.74c3.08,0,5.6-2.53,5.6-5.6v-6.03c0-3.08-2.53-5.6-5.6-5.6M255.19,37.56c0,.25-.18.43-.43.43h-.74c-.25,0-.43-.19-.43-.43v-6.03c0-.25.18-.43.43-.43h.74c.25,0,.43.18.43.43v6.03Z"/>
  <path class="cls-1" d="M270.71,36.63c1.85-.86,3.2-2.71,3.2-4.92,0-3.02-2.46-5.42-5.42-5.42h-6.1v16.5h5.17v-1.91l1.6,1.91h6.77l-5.23-6.16ZM268.43,31.95h-.98v-.55h.98c.18,0,.31.12.31.31s-.12.25-.31.25"/>
  <polygon class="cls-1" points="287.7 40.82 284.68 40.82 282.77 37.49 282.77 42.79 277.6 42.79 277.6 26.29 282.16 26.29 286.22 33.25 290.22 26.29 294.78 26.29 294.78 42.79 289.61 42.79 289.61 37.49 287.7 40.82"/>
  <rect class="cls-1" x="297" y="31.95" width="6.83" height="5.17"/>
  <polygon class="cls-1" points="306.17 42.79 306.17 37.68 308.94 37.68 308.94 31.4 306.17 31.4 306.17 26.29 316.76 26.29 316.76 31.4 314.05 31.4 314.05 37.68 316.76 37.68 316.76 42.79 306.17 42.79"/>
  <path class="cls-1" d="M325.38,26.29h-6.16v16.5h6.16c3.33,0,5.97-2.71,5.97-5.97v-4.56c.06-3.26-2.65-5.97-5.97-5.97M326.24,36.82c0,.49-.37.86-.86.86h-1.05v-6.28h1.05c.49,0,.86.37.86.86v4.56Z"/>
  <polygon class="cls-1" points="338.55 31.4 338.55 31.89 344.28 31.89 344.28 37.06 338.55 37.06 338.55 37.68 344.28 37.68 344.28 42.79 333.38 42.79 333.38 26.29 344.28 26.29 344.28 31.4 338.55 31.4"/>
  <path class="cls-1" d="M356.53,26.29h-4.31l-6.03,16.5h5.42l.55-1.54h4.37l.55,1.54h5.42l-5.97-16.5ZM354.07,36.14l.31-.8.31.8h-.62Z"/>
  <path class="cls-1" d="M368.29,31.46c0,.31.37.43.74.49l.68.12c3.33.68,4.68,2.89,4.68,5.29,0,3.33-2.52,5.79-5.6,5.79s-5.6-2.52-5.6-5.6v-.37h5.17v.37c0,.25.18.43.43.43s.43-.19.43-.43-.25-.37-.55-.43l-.68-.12c-3.45-.62-4.8-3.14-4.8-5.48,0-3.2,2.52-5.67,5.6-5.67s5.6,2.53,5.6,5.6v.49h-5.17v-.43c0-.25-.18-.43-.43-.43s-.49.12-.49.37"/>
</svg>