<?xml version="1.0" encoding="UTF-8"?>
<svg id="Layer_1" data-name="Layer 1" xmlns="http://www.w3.org/2000/svg" viewBox="0 0 113.55 43.05">
  <defs>
    <style>
      .cls-1 {
        fill: #dcfffe;
        stroke-width: 0px;
      }
    </style>
  </defs>
  <path class="cls-1" d="M70.3,3.65c0,.62.51,1.13,1.13,1.13s1.12-.51,1.12-1.13v-.53c0-1.72-1.4-3.1-3.12-3.1h-6.02c-3.1,0-5.63,2.5-5.63,5.58v6.06c0,3.08,2.53,5.58,5.63,5.58h8c.62,0,1.12-.51,1.12-1.13s-.51-1.13-1.12-1.13h-8c-1.84,0-3.35-1.49-3.35-3.33v-6.06c0-1.47.94-2.73,2.37-3.17.32-.09.67-.16.99-.16h5.63c.71.07,1.26.67,1.26,1.38"/>
  <path class="cls-1" d="M87.41.02h-3.52c-3.1,0-5.63,2.5-5.63,5.58v10.59c.02.6.53,1.08,1.13,1.08s1.12-.51,1.12-1.12v-3.86h8.89c.73.02,1.33.62,1.33,1.36v2.5c0,.62.51,1.12,1.13,1.12s1.12-.51,1.12-1.15V5.6c.05-3.08-2.48-5.58-5.58-5.58M90.76,10.02h-10.22v-4.41c0-1.47.94-2.73,2.37-3.17.32-.09.67-.16.99-.16h3.52c.35,0,.67.05.99.16,1.4.44,2.37,1.72,2.37,3.17v4.41Z"/>
  <path class="cls-1" d="M107.88.02h-3.52c-3.1,0-5.63,2.5-5.63,5.58v10.59c.02.6.53,1.08,1.13,1.08s1.12-.51,1.12-1.12v-3.86h8.89c.73.02,1.33.62,1.33,1.36v2.5c0,.62.51,1.12,1.13,1.12s1.12-.51,1.12-1.15V5.6c.05-3.08-2.48-5.58-5.58-5.58M111.23,10.02h-10.22v-4.41c0-1.47.94-2.73,2.37-3.17.32-.09.67-.16.99-.16h3.52c.35,0,.67.05.99.16,1.4.44,2.37,1.7,2.37,3.17v4.41Z"/>
  <path class="cls-1" d="M29.34,6.39v9.76c0,.62.51,1.13,1.13,1.13s1.12-.5,1.12-1.13V3.65c0-.62-.51-1.12-1.12-1.12-.3,0-.57.11-.8.32l-.07.07-4.07,4.07-.09.09-.09-.09L18.79.34C18.58.14,18.29,0,17.99,0c-.57,0-1.06.44-1.13,1.01v15.09c0,.62.51,1.13,1.13,1.13s1.12-.51,1.12-1.13V3.88l.21.21,5.38,5.38.05.02c.21.18.46.28.73.28.3,0,.6-.11.8-.35l2.48-2.48.02-.02.34-.34.21-.18Z"/>
  <path class="cls-1" d="M46.47,0h-3.52c-3.1,0-5.63,2.5-5.63,5.6v6.07c0,3.08,2.53,5.61,5.63,5.61h3.54c3.1,0,5.63-2.5,5.63-5.61v-6.07c-.05-3.08-2.55-5.6-5.65-5.6M49.83,11.67c0,1.84-1.49,3.33-3.35,3.33h-3.54c-1.84,0-3.35-1.49-3.35-3.33v-6.07c0-1.47.94-2.73,2.37-3.17.32-.09.67-.16.99-.16h3.54c.35,0,.67.05.99.16,1.4.44,2.37,1.72,2.37,3.17v6.07Z"/>
  <path class="cls-1" d="M17.34,26.14l1.72-1.72s.07-.09.07-.16-.02-.12-.07-.16c-.05-.04-.09-.07-.16-.07h-1.84c-.07,0-.11.02-.16.07-.04.05-.07.09-.07.16s.02.11.07.16c.05.05.09.07.16.07h1.31l-1.15,1.17s-.02.02-.07.07c-.02.02-.07.07-.09.09-.07.07-.11.14-.16.21-.04.07-.07.18-.07.3,0,.25.14.41.41.41h1.65c.07,0,.11-.02.16-.07.05-.05.07-.09.07-.16s-.02-.12-.07-.16c-.05-.05-.09-.07-.16-.07h-1.59s-.02-.02-.02-.05,0-.02.02-.05c0-.02.02-.02.02-.05"/>
  <path class="cls-1" d="M21.66,26.28h-1.63v-.67h1.26c.07,0,.11-.02.16-.07.05-.05.07-.09.07-.16s-.02-.12-.07-.16c-.05-.05-.09-.07-.16-.07h-1.26v-.51s.02-.07.05-.11c.02-.02.07-.05.12-.05h1.1c.07,0,.11-.02.16-.07.05-.05.07-.09.07-.16s-.02-.11-.07-.16c-.05-.05-.09-.07-.16-.07h-1.47c-.07,0-.11.02-.16.07-.05.05-.07.09-.07.16v2.23c0,.07.02.11.07.16.05.04.09.07.16.07h1.86c.07,0,.11-.02.16-.07.05-.05.07-.09.07-.16s-.02-.12-.07-.16c-.09-.02-.14-.05-.18-.05"/>
  <path class="cls-1" d="M22.4,24.12s-.07.09-.07.16v2.23c0,.07.02.12.07.16.05.05.09.07.16.07s.11-.02.16-.07c.05-.05.07-.09.07-.16v-2.23c0-.07-.02-.11-.07-.16-.09-.07-.23-.09-.32,0"/>
  <path class="cls-1" d="M25.29,24.05h-1.84c-.07,0-.11.02-.16.07-.05.05-.07.09-.07.16s.02.12.07.16c.05.05.09.07.16.07h.9v2c0,.07.02.12.07.16.05.05.09.07.16.07s.11-.02.16-.07c.05-.05.07-.09.07-.16v-1.86s.02-.07.04-.12c.02-.02.07-.05.11-.05h.37c.07,0,.11-.02.16-.07.05-.05.07-.09.07-.16s-.02-.12-.07-.16c-.09-.02-.16-.05-.21-.05"/>
  <path class="cls-1" d="M26.37,26.14l1.72-1.72s.07-.09.07-.16-.02-.12-.07-.16c-.05-.04-.09-.07-.16-.07h-1.84c-.07,0-.11.02-.16.07-.04.05-.07.09-.07.16s.02.11.07.16c.05.05.09.07.16.07h1.31l-1.15,1.17s-.02.02-.07.07c-.02.02-.07.07-.09.09-.07.07-.11.14-.16.21-.04.07-.07.18-.07.3,0,.25.14.41.41.41h1.65c.07,0,.11-.02.16-.07.05-.05.07-.09.07-.16s-.02-.12-.07-.16c-.05-.05-.09-.07-.16-.07h-1.54s-.02,0-.02-.02-.02-.02-.02-.05,0-.02.02-.05v-.02Z"/>
  <path class="cls-1" d="M32.25,24.42c-.07,0-.11.02-.16.07l-.6.57-.97-.97c-.09-.09-.23-.07-.3,0-.05.05-.07.09-.07.14v2.23c0,.07.02.11.07.16.05.05.09.07.16.07s.12-.02.16-.07c.05-.05.07-.09.07-.16v-1.68l.71.71.02.02s.09.05.14.05c.07,0,.11-.02.16-.07l.34-.35v1.31c0,.07.02.11.07.16.05.05.09.07.16.07s.11-.02.16-.07c.05-.05.07-.09.07-.16v-1.84c0-.07-.02-.12-.07-.16-.02-.02-.07-.05-.14-.05"/>
  <path class="cls-1" d="M34.94,24.12s-.07.09-.07.16v1.56c0,.12-.05.23-.14.32-.09.09-.18.14-.32.14h-.53c-.11,0-.23-.05-.32-.14-.09-.09-.14-.18-.14-.32v-1.56c0-.07-.02-.11-.07-.16-.05-.05-.09-.07-.16-.07s-.12.02-.16.07c-.05.05-.07.09-.07.16v1.56c0,.16.05.3.11.44.07.14.18.25.32.32s.28.12.44.12h.53c.16,0,.32-.05.44-.12.14-.07.25-.18.32-.32.07-.14.11-.28.11-.44v-1.56c0-.07-.02-.11-.07-.16,0-.09-.14-.09-.23,0"/>
  <path class="cls-1" d="M37.74,25.27c-.11-.07-.28-.12-.41-.12h-.6c-.14,0-.25-.02-.32-.09-.09-.07-.12-.14-.12-.23s.05-.16.12-.23c.09-.07.18-.09.32-.09h.83s.09-.02.12-.07c.05-.05.07-.09.07-.16s-.02-.12-.07-.16c-.05-.05-.09-.07-.16-.07h-.9c-.16,0-.3.05-.41.11s-.21.16-.28.28c-.07.11-.09.25-.09.39s.02.25.09.37c.07.12.16.21.28.3.11.07.28.12.41.12h.6c.14,0,.25.02.32.09.07.07.11.14.11.23s-.05.16-.11.23c-.09.07-.18.12-.32.12h-1.17c-.07,0-.11.02-.16.07-.05.05-.07.09-.07.16s.02.11.07.16c.05.05.09.07.16.07h1.26c.16,0,.3-.05.41-.12s.23-.16.28-.3c.07-.11.09-.25.09-.37,0-.14-.02-.27-.09-.39-.05-.14-.14-.23-.25-.3"/>
  <path class="cls-1" d="M40.68,26.28h-1.63v-.67h1.26c.07,0,.11-.02.16-.07.05-.05.07-.09.07-.16s-.02-.12-.07-.16c-.05-.05-.09-.07-.16-.07h-1.26v-.51s.02-.07.05-.11c.02-.02.07-.05.12-.05h1.1c.07,0,.11-.02.16-.07.05-.05.07-.09.07-.16s-.02-.11-.07-.16c-.05-.05-.09-.07-.16-.07h-1.47c-.07,0-.11.02-.16.07-.05.05-.07.09-.07.16v2.23c0,.07.02.11.07.16.05.04.09.07.16.07h1.86c.07,0,.11-.02.16-.07.05-.05.07-.09.07-.16s-.02-.12-.07-.16c-.07-.02-.12-.05-.18-.05"/>
  <path class="cls-1" d="M43.58,24.12c-.09-.09-.23-.09-.3,0-.05.05-.07.09-.07.16v1.56c0,.12-.05.23-.14.32-.09.09-.18.14-.32.14h-.5c-.12,0-.23-.05-.32-.14-.09-.09-.14-.18-.14-.32v-1.56c0-.07-.02-.11-.07-.16-.09-.09-.23-.09-.32,0-.05.05-.07.09-.07.16v1.56c0,.16.05.3.11.44.07.14.18.25.32.32s.28.12.44.12h.53c.16,0,.32-.05.44-.12.14-.07.25-.18.32-.32.07-.14.11-.28.11-.44v-1.56c.05-.07.02-.11-.02-.16"/>
  <path class="cls-1" d="M46.27,24.42c-.07,0-.11.02-.16.07l-.6.57-.97-.97c-.09-.09-.23-.07-.3,0-.05.05-.07.09-.07.14v2.23c0,.07.02.11.07.16.05.05.09.07.16.07s.12-.02.16-.07c.05-.05.07-.09.07-.16v-1.68l.71.71.02.02s.09.05.14.05c.07,0,.11-.02.16-.07l.34-.35v1.31c0,.07.02.11.07.16.05.05.09.07.16.07s.11-.02.16-.07c.05-.05.07-.09.07-.16v-1.84c0-.07-.02-.12-.07-.16-.05-.05-.07-.05-.14-.05"/>
  <path class="cls-1" d="M50.45,24.17c-.14-.07-.27-.12-.44-.12h-.53c-.16,0-.3.05-.44.12-.14.07-.25.18-.32.32-.07.14-.11.28-.11.44v.9c0,.16.05.3.11.44.07.14.18.23.32.32.14.07.28.11.44.11h.53c.16,0,.3-.04.44-.11.14-.07.25-.18.32-.32.07-.14.11-.28.11-.44v-.9c0-.16-.05-.3-.11-.44-.07-.14-.18-.23-.32-.32M50.01,26.28h-.53c-.11,0-.23-.05-.32-.14-.09-.09-.14-.18-.14-.32v-.9c0-.09.02-.18.09-.25.07-.07.14-.14.23-.16.02-.02.07-.02.14-.02h.53s.09,0,.14.02c.09.02.16.07.23.16.07.07.09.16.09.25v.9c0,.11-.04.23-.14.32-.09.09-.18.14-.32.14"/>
  <path class="cls-1" d="M53.23,25.15h-1.35v-.51s.02-.07.05-.11c.02-.02.07-.05.09-.05h.74c.07,0,.11-.02.16-.07.05-.05.07-.09.07-.16s-.02-.12-.07-.16c-.05-.05-.09-.07-.16-.07h-1.08c-.07,0-.11.02-.16.07-.05.05-.07.09-.07.16v2.21c0,.07.02.11.07.16.05.05.09.07.16.07s.11-.02.16-.07c.05-.05.07-.09.07-.16v-.9h1.26c.07,0,.11-.02.16-.07.05-.05.07-.09.07-.16s-.02-.11-.07-.16l-.09-.02Z"/>
  <path class="cls-1" d="M57.16,24.05h-.9c-.16,0-.3.05-.44.12-.14.07-.25.18-.32.32-.07.14-.11.28-.11.44v.9c0,.16.05.3.11.44.07.14.18.25.32.32.14.07.27.11.44.11h1.17c.07,0,.11-.02.16-.07.05-.05.07-.09.07-.16s-.02-.11-.07-.16c-.04-.05-.09-.07-.16-.07h-1.17c-.11,0-.23-.05-.32-.14-.09-.09-.14-.18-.14-.32v-.9c0-.09.02-.18.09-.25.07-.07.14-.14.23-.16.05,0,.09-.02.14-.02h.8s.07.02.11.05c.02.02.05.07.05.11,0,.07.02.12.07.16.05.05.09.07.16.07s.11-.02.16-.07c.05-.05.07-.09.07-.16v-.05c0-.14-.05-.25-.14-.37-.11-.09-.23-.14-.39-.14"/>
  <path class="cls-1" d="M59.98,24.17c-.14-.07-.28-.12-.44-.12h-.53c-.16,0-.3.05-.44.12-.14.07-.25.18-.32.32-.07.14-.11.28-.11.44v.9c0,.16.05.3.11.44.07.14.18.23.32.32.14.07.28.11.44.11h.53c.16,0,.3-.04.44-.11.14-.07.25-.18.32-.32.07-.14.11-.28.11-.44v-.9c0-.16-.05-.3-.11-.44-.09-.14-.18-.23-.32-.32M59.54,26.28h-.53c-.11,0-.23-.05-.32-.14-.09-.09-.14-.18-.14-.32v-.9c0-.09.02-.18.09-.25.07-.07.14-.14.23-.16.02-.02.07-.02.14-.02h.53s.09,0,.14.02c.09.02.16.07.23.16.07.07.09.16.09.25v.9c0,.11-.04.23-.14.32-.09.09-.21.14-.32.14"/>
  <path class="cls-1" d="M63.17,24.12c-.09-.07-.21-.07-.3,0-.05.05-.07.09-.07.14v1.7l-1.47-1.47c-.09-.09-.23-.09-.32,0-.05.04-.07.09-.07.16v1.84c0,.07.02.11.07.16s.09.07.16.07.12-.02.16-.07c.05-.05.07-.09.07-.16v-1.31l1.47,1.47s.09.07.16.07.11-.02.16-.07c.05-.05.07-.09.07-.16v-2.25s-.05-.09-.09-.12"/>
  <path class="cls-1" d="M65.77,24.05h-1.84c-.07,0-.11.02-.16.07-.05.05-.07.09-.07.16s.02.12.07.16c.05.05.09.07.16.07h.9v2c0,.07.02.12.07.16.05.05.09.07.16.07s.11-.02.16-.07c.05-.05.07-.09.07-.16v-1.86s.02-.07.05-.12c.02-.02.07-.05.11-.05h.37c.07,0,.11-.02.16-.07.05-.05.07-.09.07-.16s-.02-.12-.07-.16c-.09-.02-.14-.05-.21-.05"/>
  <path class="cls-1" d="M68.5,26.28h-1.63v-.67h1.26c.07,0,.11-.02.16-.07.05-.05.07-.09.07-.16s-.02-.12-.07-.16c-.05-.05-.09-.07-.16-.07h-1.26v-.51s.02-.07.05-.11c.02-.02.07-.05.12-.05h1.1c.07,0,.11-.02.16-.07.05-.05.07-.09.07-.16s-.02-.11-.07-.16c-.05-.05-.09-.07-.16-.07h-1.47c-.07,0-.11.02-.16.07-.05.05-.07.09-.07.16v2.23c0,.07.02.11.07.16.05.04.09.07.16.07h1.86c.07,0,.11-.02.16-.07.05-.05.07-.09.07-.16s-.02-.12-.07-.16c-.05-.05-.12-.05-.18-.05"/>
  <path class="cls-1" d="M71.26,24.42c-.07,0-.11.02-.16.07l-.6.57-.97-.97c-.09-.09-.23-.07-.3,0-.05.05-.07.09-.07.14v2.23c0,.07.02.11.07.16.05.05.09.07.16.07s.12-.02.16-.07c.05-.05.07-.09.07-.16v-1.68l.71.71.02.02s.09.05.14.05c.07,0,.11-.02.16-.07l.34-.35v1.31c0,.07.02.11.07.16.05.05.09.07.16.07s.11-.02.16-.07c.05-.05.07-.09.07-.16v-1.84c0-.07-.02-.12-.07-.16-.02-.02-.09-.05-.14-.05"/>
  <path class="cls-1" d="M73.56,24.17c-.12-.07-.25-.11-.41-.11h-.94s-.09.02-.11.07c-.05.05-.07.09-.07.16v2.23c0,.07.02.11.07.16.05.05.09.07.16.07s.11-.02.16-.07c.05-.05.07-.09.07-.16v-.9h.67c.16,0,.3-.05.41-.11.11-.07.21-.16.27-.3.07-.12.09-.25.09-.37,0-.14-.02-.28-.09-.39-.07-.11-.16-.21-.27-.28M72.46,24.49h.57c.14,0,.25.02.32.09.07.07.11.14.11.23s-.05.16-.11.23c-.09.07-.18.09-.32.09h-.44s-.07-.02-.11-.05c-.02-.02-.05-.07-.05-.12v-.48h.02Z"/>
  <path class="cls-1" d="M76.25,24.17c-.14-.07-.27-.12-.44-.12h-.53c-.16,0-.3.05-.44.12-.14.07-.25.18-.32.32-.07.14-.11.28-.11.44v.9c0,.16.05.3.11.44.07.14.18.23.32.32.14.07.28.11.44.11h.53c.16,0,.3-.04.44-.11.14-.07.25-.18.32-.32.07-.14.11-.28.11-.44v-.9c0-.16-.05-.3-.11-.44-.09-.14-.18-.23-.32-.32M75.79,26.28h-.53c-.11,0-.23-.05-.32-.14-.09-.09-.14-.18-.14-.32v-.9c0-.09.02-.18.09-.25.07-.07.14-.14.23-.16.02-.02.07-.02.14-.02h.53s.09,0,.14.02c.09.02.16.07.23.16.07.07.09.16.09.25v.9c0,.11-.05.23-.14.32-.09.09-.18.14-.32.14"/>
  <path class="cls-1" d="M78.66,25.55c.14-.05.25-.14.35-.28.09-.14.14-.28.14-.46,0-.14-.02-.28-.09-.39-.07-.12-.16-.21-.28-.28s-.25-.12-.41-.12h-.9c-.07,0-.11.02-.16.07-.05.05-.07.09-.07.16v2.23c0,.07.02.12.07.16.09.09.23.09.3,0,.05-.05.07-.09.07-.16v-.9h.44l1.06,1.03s.09.07.16.07.11-.02.16-.07c.05-.05.07-.09.07-.16s-.02-.12-.07-.16l-.83-.76ZM78.68,24.83c0,.09-.05.16-.11.23-.09.07-.18.09-.32.09h-.41s-.07-.02-.12-.05c-.02-.02-.05-.07-.05-.12v-.51h.57c.14,0,.25.02.32.09.09.07.11.14.11.25"/>
  <path class="cls-1" d="M81.81,24.14c-.14-.07-.28-.11-.44-.11h-.53c-.16,0-.3.05-.44.11-.14.07-.23.18-.32.32-.07.14-.11.28-.11.44v1.56c0,.07.02.11.07.14.09.07.21.09.3,0,.05-.05.07-.09.07-.16v-.51h1.26s.07.02.11.05c.02.02.05.07.05.12v.37c0,.07.02.11.07.16s.09.07.16.07.11-.02.16-.07.07-.09.07-.16v-1.54c0-.16-.05-.3-.12-.44-.11-.16-.23-.25-.37-.34M80.84,24.47h.53s.09,0,.14.02c.09.02.16.07.23.16.07.07.09.16.09.25v.6h-1.4v-.6c0-.09.02-.18.09-.25.07-.07.14-.14.23-.16,0,0,.05-.02.09-.02"/>
  <path class="cls-1" d="M84.22,25.55c.14-.05.25-.14.35-.28.09-.14.14-.28.14-.46,0-.14-.02-.28-.09-.39-.07-.12-.16-.21-.28-.28-.11-.07-.25-.12-.41-.12h-.9c-.07,0-.11.02-.16.07-.05.05-.07.09-.07.16v2.23c0,.07.02.12.07.16.09.09.23.09.3,0,.05-.05.07-.09.07-.16v-.9h.44l1.06,1.03s.09.07.16.07.11-.02.16-.07.07-.09.07-.16-.02-.12-.07-.16l-.83-.76ZM84.26,24.83c0,.09-.05.16-.11.23-.09.07-.18.09-.32.09h-.41s-.07-.02-.12-.05c-.02-.02-.05-.07-.05-.12v-.51h.58c.14,0,.25.02.32.09.07.07.11.14.11.25"/>
  <path class="cls-1" d="M86.91,24.49l-.57.57-.97-.97c-.09-.09-.23-.07-.3,0-.05.05-.07.09-.07.16s.02.11.07.16l1.03,1.03v1.01c0,.07.02.11.07.16.05.05.09.07.16.07s.11-.02.16-.07c.05-.05.07-.09.07-.16v-.99l.67-.67v-.02s.07-.09.07-.14c0-.07-.02-.11-.07-.16-.09-.09-.23-.09-.32,0"/>
  <path class="cls-1" d="M91.61,24.14c-.14-.07-.28-.11-.44-.11h-.53c-.16,0-.3.05-.44.11-.14.07-.23.18-.32.32-.07.14-.11.28-.11.44v1.56c0,.07.02.11.07.14.09.07.21.09.3,0,.05-.05.07-.09.07-.16v-.51h1.26s.07.02.11.05c.02.02.05.07.05.12v.37c0,.07.02.11.07.16s.09.07.16.07.11-.02.16-.07.07-.09.07-.16v-1.54c0-.16-.05-.3-.12-.44-.14-.16-.25-.25-.37-.34M90.65,24.47h.53s.09,0,.14.02c.09.02.16.07.23.16.07.07.09.16.09.25v.6h-1.4v-.6c0-.09.02-.18.09-.25.07-.07.14-.14.23-.16,0,0,.05-.02.09-.02"/>
  <path class="cls-1" d="M94.26,25.55c.14-.05.25-.14.35-.28.09-.14.14-.28.14-.46,0-.14-.02-.28-.09-.39-.07-.12-.16-.21-.28-.28s-.25-.12-.41-.12h-.9c-.07,0-.11.02-.16.07-.05.05-.07.09-.07.16v2.23c0,.07.02.12.07.16.09.09.23.09.3,0,.05-.05.07-.09.07-.16v-.9h.44l1.06,1.03s.09.07.16.07.11-.02.16-.07c.05-.05.07-.09.07-.16s-.02-.12-.07-.16l-.83-.76ZM94.28,24.83c0,.09-.05.16-.11.23-.09.07-.18.09-.32.09h-.41s-.07-.02-.12-.05c-.02-.02-.05-.07-.05-.12v-.51h.58c.14,0,.25.02.32.09.09.07.11.14.11.25"/>
  <path class="cls-1" d="M97.22,24.05h-1.84c-.07,0-.11.02-.16.07-.05.05-.07.09-.07.16s.02.12.07.16c.05.05.09.07.16.07h.9v2c0,.07.02.12.07.16.05.05.09.07.16.07s.11-.02.16-.07c.05-.05.07-.09.07-.16v-1.86s.02-.07.05-.12c.02-.02.07-.05.11-.05h.37c.07,0,.11-.02.16-.07.05-.05.07-.09.07-.16s-.02-.12-.07-.16c-.09-.02-.14-.05-.21-.05"/>
  <path class="cls-1" d="M101.4,24.14c-.14-.07-.28-.11-.44-.11h-.53c-.16,0-.3.05-.44.11-.14.07-.23.18-.32.32-.07.14-.11.28-.11.44v1.56c0,.07.02.11.07.14.09.07.21.09.3,0,.05-.05.07-.09.07-.16v-.51h1.26s.07.02.11.05c.02.02.05.07.05.12v.37c0,.07.02.11.07.16s.09.07.16.07.11-.02.16-.07.07-.09.07-.16v-1.54c0-.16-.05-.3-.12-.44-.11-.16-.23-.25-.37-.34M100.44,24.47h.53s.09,0,.14.02c.09.02.16.07.23.16.07.07.09.16.09.25v.6h-1.4v-.6c0-.09.02-.18.09-.25.07-.07.14-.14.23-.16,0,0,.05-.02.09-.02"/>
  <path class="cls-1" d="M104.16,25.15h-1.35v-.51s.02-.07.05-.11c.02-.02.07-.05.09-.05h.74c.07,0,.11-.02.16-.07.05-.05.07-.09.07-.16s-.02-.12-.07-.16c-.05-.05-.09-.07-.16-.07h-1.1c-.07,0-.11.02-.16.07-.05.05-.07.09-.07.16v2.21c0,.07.02.11.07.16.05.05.09.07.16.07s.12-.02.16-.07c.05-.05.07-.09.07-.16v-.9h1.26c.07,0,.11-.02.16-.07.05-.05.07-.09.07-.16s-.02-.11-.07-.16l-.07-.02Z"/>
  <path class="cls-1" d="M106.18,25.55c.14-.05.25-.14.35-.28.09-.14.14-.28.14-.46,0-.14-.02-.28-.09-.39-.07-.12-.16-.21-.28-.28-.11-.07-.25-.12-.41-.12h-.9c-.07,0-.11.02-.16.07-.05.05-.07.09-.07.16v2.23c0,.07.02.12.07.16.09.09.23.09.3,0,.05-.05.07-.09.07-.16v-.9h.44l1.06,1.03s.09.07.16.07.11-.02.16-.07.07-.09.07-.16-.02-.12-.07-.16l-.83-.76ZM106.23,24.83c0,.09-.05.16-.11.23-.09.07-.18.09-.32.09h-.41s-.07-.02-.12-.05c-.02-.02-.05-.07-.05-.12v-.51h.58c.14,0,.25.02.32.09.07.07.11.14.11.25"/>
  <path class="cls-1" d="M107.56,24.12s-.07.09-.07.16v2.23c0,.07.02.12.07.16.05.05.09.07.16.07s.11-.02.16-.07c.05-.05.07-.09.07-.16v-2.23c0-.07-.02-.11-.07-.16-.09-.07-.23-.09-.32,0"/>
  <path class="cls-1" d="M110.27,24.05h-.9c-.16,0-.3.05-.44.12-.14.07-.25.18-.32.32-.07.14-.11.28-.11.44v.9c0,.16.05.3.11.44.07.14.18.25.32.32.14.07.27.11.44.11h1.17c.07,0,.11-.02.16-.07.05-.05.07-.09.07-.16s-.02-.11-.07-.16c-.04-.05-.09-.07-.16-.07h-1.17c-.11,0-.23-.05-.32-.14-.09-.09-.14-.18-.14-.32v-.9c0-.09.02-.18.09-.25.07-.07.14-.14.23-.16.05,0,.09-.02.14-.02h.8s.07.02.11.05c.02.02.05.07.05.11,0,.07.02.12.07.16.05.05.09.07.16.07s.11-.02.16-.07c.05-.05.07-.09.07-.16v-.05c0-.14-.05-.25-.14-.37-.14-.09-.25-.14-.39-.14"/>
  <path class="cls-1" d="M113.39,24.47c-.07-.14-.18-.25-.32-.32s-.28-.11-.44-.11h-.53c-.16,0-.3.05-.44.11-.14.07-.23.18-.32.32-.07.14-.11.28-.11.44v1.56c0,.07.02.11.07.14.09.07.21.09.3,0,.05-.05.07-.09.07-.16v-.51h1.26s.07.02.11.05c.02.02.05.07.05.12v.37c0,.07.02.11.07.16s.09.07.16.07.11-.02.16-.07.07-.09.07-.16v-1.54c-.05-.16-.09-.32-.16-.46M112.11,24.47h.53s.09,0,.14.02c.09.02.16.07.23.16.07.07.09.16.09.25v.6h-1.4v-.6c0-.09.02-.18.09-.25.07-.07.14-.14.23-.16,0,0,.05-.02.09-.02"/>
  <path class="cls-1" d="M18.45,42.43l1.75-1.75s.07-.09.07-.16-.02-.11-.07-.16c-.05-.04-.09-.07-.16-.07h-1.86c-.07,0-.11.02-.16.07-.05.05-.07.09-.07.16s.02.12.07.16c.04.05.09.07.16.07h1.33l-1.17,1.17s-.02.02-.07.07c-.02.02-.07.07-.09.09-.07.07-.11.14-.16.21-.05.07-.07.18-.07.3,0,.28.14.41.41.41h1.68c.07,0,.11-.02.16-.07.05-.05.07-.09.07-.16s-.02-.12-.07-.16c-.05-.05-.09-.07-.16-.07h-1.59s-.02,0-.02-.02-.02-.02-.02-.05,0-.02.02-.05c.02.02.02,0,.02,0"/>
  <path class="cls-1" d="M23,42.55h-1.65v-.69h1.26c.07,0,.11-.02.16-.07.05-.05.07-.09.07-.16s-.02-.12-.07-.16c-.05-.05-.09-.07-.16-.07h-1.26v-.53s.02-.07.05-.11c.02-.02.07-.05.11-.05h1.12c.07,0,.11-.02.16-.07.05-.05.07-.09.07-.16s-.02-.11-.07-.16c-.05-.05-.09-.07-.16-.07h-1.52c-.07,0-.12.02-.16.07-.05.05-.07.09-.07.16v2.25c0,.07.02.12.07.16.05.05.09.07.16.07h1.88c.07,0,.11-.02.16-.07.05-.05.07-.09.07-.16s-.02-.11-.07-.16c-.05,0-.09-.02-.16-.02"/>
  <path class="cls-1" d="M24.08,40.32c-.07,0-.11.02-.16.07-.05.05-.07.09-.07.16v2.25c0,.07.02.12.07.16.05.05.09.07.16.07s.11-.02.16-.07c.05-.05.07-.09.07-.16v-2.25c0-.07-.02-.11-.07-.16-.05-.05-.09-.07-.16-.07"/>
  <path class="cls-1" d="M27.04,40.32h-1.86c-.07,0-.11.02-.16.07-.05.05-.07.09-.07.16s.02.12.07.16c.05.05.09.07.16.07h.9v2.02c0,.07.02.12.07.16.05.05.09.07.16.07s.11-.02.16-.07c.05-.05.07-.09.07-.16v-1.88s.02-.07.05-.12c.02-.02.07-.05.11-.05h.37c.07,0,.11-.02.16-.07.05-.05.07-.09.07-.16s-.02-.12-.07-.16c-.07-.02-.12-.05-.18-.05"/>
  <path class="cls-1" d="M28.33,42.43l1.75-1.75s.07-.09.07-.16-.02-.11-.07-.16c-.05-.04-.09-.07-.16-.07h-1.86c-.07,0-.11.02-.16.07-.05.05-.07.09-.07.16s.02.12.07.16c.04.05.09.07.16.07h1.33l-1.17,1.17s-.02.02-.07.07c-.02.02-.07.07-.09.09-.07.07-.11.14-.16.21-.05.07-.07.18-.07.3,0,.28.14.41.41.41h1.68c.07,0,.11-.02.16-.07.05-.05.07-.09.07-.16s-.02-.12-.07-.16c-.05-.05-.09-.07-.16-.07h-1.59s-.02,0-.02-.02-.02-.02-.02-.05,0-.02.02-.05c0,.02.02,0,.02,0"/>
  <path class="cls-1" d="M34.48,40.36s-.07.09-.07.16v1.58c0,.12-.05.23-.14.32-.09.09-.18.14-.32.14h-.53c-.11,0-.23-.05-.32-.14-.09-.09-.14-.18-.14-.32v-1.58c0-.07-.02-.11-.07-.16-.09-.09-.23-.09-.32,0-.05.05-.07.09-.07.16v1.58c0,.16.05.32.11.46.07.14.18.25.32.32s.3.11.46.11h.53c.16,0,.32-.05.46-.11s.25-.18.32-.32c.07-.14.11-.3.11-.46v-1.58c0-.07-.02-.11-.07-.16-.05-.09-.18-.09-.28,0"/>
  <path class="cls-1" d="M37.7,40.68c-.07,0-.11.02-.16.07l-.6.6-.97-.97c-.09-.09-.23-.07-.3,0-.05.05-.07.09-.07.14v2.27c0,.07.02.12.07.16.05.05.09.07.16.07s.12-.02.16-.07c.05-.05.07-.09.07-.16v-1.7l.73.73.02.02s.09.05.14.05c.07,0,.11-.02.16-.07l.34-.37v1.33c0,.07.02.12.07.16.05.05.09.07.16.07s.11-.02.16-.07c.05-.05.07-.09.07-.16v-1.86c0-.07-.02-.11-.07-.16-.05-.07-.11-.09-.16-.09"/>
  <path class="cls-1" d="M39.08,42.43l1.75-1.75s.07-.09.07-.16-.02-.11-.07-.16c-.05-.04-.09-.07-.16-.07h-1.86c-.07,0-.11.02-.16.07-.05.05-.07.09-.07.16s.02.12.07.16c.04.05.09.07.16.07h1.33l-1.17,1.17s-.02.02-.07.07c-.02.02-.07.07-.09.09-.07.07-.11.14-.16.21-.05.07-.07.18-.07.3,0,.28.14.41.41.41h1.68c.07,0,.11-.02.16-.07.05-.05.07-.09.07-.16s-.02-.12-.07-.16c-.05-.05-.09-.07-.16-.07h-1.59s-.02,0-.02-.02-.02-.02-.02-.05,0-.02.02-.05c0,.02,0,0,.02,0"/>
  <path class="cls-1" d="M41.74,40.32c-.07,0-.11.02-.16.07-.05.05-.07.09-.07.16v2.25c0,.07.02.12.07.16.05.05.09.07.16.07s.11-.02.16-.07c.05-.05.07-.09.07-.16v-2.25c0-.07-.02-.11-.07-.16-.05-.05-.11-.07-.16-.07"/>
  <path class="cls-1" d="M46.54,40.32c-.07,0-.11.02-.16.07-.05.05-.07.09-.07.16v1.35s-.02.07-.05.12l-.25.25v-.6c0-.07-.02-.11-.07-.16-.09-.09-.21-.09-.3,0l-.76.76v-1.7c0-.07-.02-.11-.07-.16-.05-.05-.09-.07-.16-.07s-.12.02-.16.07c-.05.05-.07.09-.07.16v2.27s.02.09.07.14c.05.05.09.05.14.05.07,0,.11-.02.16-.07l.73-.73v.6c0,.07.02.11.07.16.05.05.09.07.16.07s.11-.02.16-.07l.76-.76s.05-.07.05-.09v-1.56c0-.07-.02-.11-.07-.16,0-.07-.05-.09-.11-.09"/>
  <path class="cls-1" d="M49.34,40.43c-.14-.07-.3-.12-.46-.12h-.53c-.16,0-.32.05-.46.12-.14.07-.25.18-.32.32-.07.14-.11.28-.11.44v.92c0,.16.05.32.11.44.07.14.18.25.32.32s.28.11.46.11h.53c.16,0,.32-.05.46-.11.14-.07.25-.18.32-.32.07-.14.11-.28.11-.44v-.92c0-.16-.05-.3-.11-.44-.09-.14-.21-.25-.32-.32M48.89,42.55h-.53c-.11,0-.23-.05-.32-.14-.09-.09-.14-.18-.14-.32v-.92c0-.09.02-.18.09-.28.07-.07.14-.14.23-.16.02-.02.07-.02.14-.02h.53s.09,0,.14.02c.09.02.16.09.23.16.07.07.09.16.09.28v.92c0,.11-.04.23-.14.32-.09.12-.18.14-.32.14"/>
  <path class="cls-1" d="M52.61,41.42h-.76c-.07,0-.11.02-.16.07s-.07.09-.07.16.02.12.07.16c.05.05.09.07.16.07h.53v.53s-.02.07-.05.12c-.02.02-.07.05-.11.05h-.83c-.11,0-.23-.05-.32-.14-.09-.09-.14-.18-.14-.32v-.92c0-.09.02-.18.09-.28.07-.07.14-.14.23-.16.05-.02.09-.02.14-.02h.83c.07,0,.11-.02.16-.07.05-.05.07-.09.07-.16s-.02-.12-.07-.16c-.05-.05-.09-.07-.16-.07h-.83c-.16,0-.32.05-.46.11s-.25.18-.32.32c-.07.14-.11.28-.11.44v.92c0,.16.04.32.11.46.07.14.18.25.32.32s.28.12.46.12h.9c.14,0,.28-.05.37-.16.09-.09.16-.23.16-.37v-.83c0-.07-.02-.11-.07-.16-.02,0-.07-.02-.14-.02"/>
  <path class="cls-1" d="M55.32,40.29h-.9c-.16,0-.32.05-.46.12-.14.07-.25.18-.32.32-.07.14-.11.28-.11.44v.92c0,.16.05.32.11.46.07.14.18.25.32.32.14.07.3.11.46.11h1.2c.07,0,.11-.02.16-.07.05-.05.07-.09.07-.16s-.02-.12-.07-.16c-.04-.05-.09-.07-.16-.07h-1.2c-.14,0-.23-.05-.32-.14-.09-.09-.14-.18-.14-.32v-.92c0-.09.02-.18.09-.28.07-.07.14-.14.23-.16.05,0,.09-.02.14-.02h.83s.07.02.11.05c.02.02.05.07.05.11,0,.07.02.12.07.16.05.05.09.07.16.07s.11-.02.16-.07c.05-.05.07-.09.07-.16v-.07c0-.14-.05-.27-.16-.37-.14-.05-.25-.12-.39-.12"/>
  <path class="cls-1" d="M56.54,40.36s-.07.09-.07.16v2.25c0,.07.02.12.07.16.05.05.09.07.16.07s.11-.02.16-.07c.05-.05.07-.09.07-.16v-2.25c0-.07-.02-.11-.07-.16-.09-.07-.23-.07-.32,0"/>
  <path class="cls-1" d="M59.89,40.36c-.09-.07-.21-.07-.3,0-.05.05-.07.09-.07.14v1.72l-1.49-1.49s-.09-.07-.16-.07-.11.02-.16.07-.07.09-.07.16v1.86c0,.07.02.12.07.16.05.05.09.07.16.07s.11-.02.16-.07c.05-.05.07-.09.07-.16v-1.33l1.49,1.49s.09.07.16.07.11-.02.16-.07c.05-.05.07-.09.07-.16v-2.27s-.05-.09-.09-.12"/>
  <path class="cls-1" d="M62.58,40.43c-.14-.07-.3-.12-.46-.12h-.53c-.16,0-.32.05-.46.12-.14.07-.25.18-.32.32-.07.14-.11.28-.11.44v.92c0,.16.05.32.11.44.07.14.18.25.32.32s.28.11.46.11h.53c.16,0,.32-.05.46-.11.14-.07.25-.18.32-.32.07-.14.11-.28.11-.44v-.92c0-.16-.05-.3-.11-.44-.09-.14-.21-.25-.32-.32M62.12,42.55h-.53c-.11,0-.23-.05-.32-.14-.09-.09-.14-.18-.14-.32v-.92c0-.09.02-.18.09-.28.07-.07.14-.14.23-.16.02-.02.07-.02.14-.02h.53s.09,0,.14.02c.09.02.16.09.23.16.07.07.09.16.09.28v.92c0,.11-.04.23-.14.32-.09.12-.18.14-.32.14"/>
  <path class="cls-1" d="M67.36,41.49c.07-.12.11-.25.11-.39s-.05-.28-.09-.39c-.07-.11-.16-.21-.3-.28-.11-.07-.28-.12-.44-.12h-.9c-.07,0-.12.02-.16.07-.05.05-.07.09-.07.16v2.48h1.52c.16,0,.3-.05.44-.12.11-.07.23-.16.3-.3.07-.11.09-.25.09-.39,0-.16-.05-.32-.14-.46-.11-.14-.23-.23-.37-.28M67.4,42.2c0,.09-.05.16-.12.23-.09.07-.18.09-.32.09h-.83s-.07-.02-.12-.05c-.02-.02-.05-.07-.05-.11v-.53h.99c.14,0,.25.02.34.09.05.11.09.18.09.28M65.95,41.42v-.69h.6c.14,0,.25.02.35.09.09.07.11.14.11.23s-.05.16-.11.23c-.09.07-.18.09-.32.09h-.62v.05Z"/>
  <path class="cls-1" d="M70.73,40.36c-.09-.09-.23-.09-.32,0-.05.05-.07.09-.07.16v1.58c0,.12-.04.23-.14.32-.09.09-.18.14-.32.14h-.53c-.11,0-.23-.05-.32-.14-.09-.09-.14-.18-.14-.32v-1.58c0-.07-.02-.11-.07-.16-.09-.09-.23-.09-.32,0-.05.05-.07.09-.07.16v1.58c0,.16.05.32.11.46.07.14.18.25.32.32s.28.11.46.11h.53c.16,0,.32-.05.46-.11.14-.07.25-.18.32-.32.07-.14.11-.3.11-.46v-1.58c.05-.07.02-.11-.02-.16"/>
  <path class="cls-1" d="M73.63,41.42h-.76c-.07,0-.11.02-.16.07s-.07.09-.07.16.02.12.07.16c.05.05.09.07.16.07h.53v.53s-.02.07-.05.12c-.02.02-.07.05-.11.05h-.83c-.11,0-.23-.05-.32-.14-.09-.09-.14-.18-.14-.32v-.92c0-.09.02-.18.09-.28.07-.07.14-.14.23-.16.05-.02.09-.02.14-.02h.83c.07,0,.11-.02.16-.07.05-.05.07-.09.07-.16s-.02-.12-.07-.16c-.05-.05-.09-.07-.16-.07h-.83c-.16,0-.32.05-.46.11s-.25.18-.32.32c-.07.14-.11.28-.11.44v.92c0,.16.05.32.11.46.07.14.18.25.32.32s.28.12.46.12h.9c.14,0,.28-.05.37-.16.09-.09.16-.23.16-.37v-.83c0-.07-.02-.11-.07-.16-.02,0-.07-.02-.14-.02"/>
  <path class="cls-1" d="M76.34,40.29h-.9c-.16,0-.32.05-.46.12-.14.07-.25.18-.32.32-.07.14-.11.28-.11.44v.92c0,.16.05.32.11.46.07.14.18.25.32.32.14.07.3.11.46.11h1.2c.07,0,.11-.02.16-.07.05-.05.07-.09.07-.16s-.02-.12-.07-.16c-.04-.05-.09-.07-.16-.07h-1.2c-.14,0-.23-.05-.32-.14-.09-.09-.14-.18-.14-.32v-.92c0-.09.02-.18.09-.28.07-.07.14-.14.23-.16.05,0,.09-.02.14-.02h.83s.07.02.11.05c.02.02.05.07.05.11,0,.07.02.12.07.16.05.05.09.07.16.07s.11-.02.16-.07c.05-.05.07-.09.07-.16v-.07c0-.14-.05-.27-.16-.37-.11-.05-.23-.12-.39-.12"/>
  <path class="cls-1" d="M77.58,40.36s-.07.09-.07.16v2.25c0,.07.02.12.07.16.05.05.09.07.16.07s.11-.02.16-.07c.05-.05.07-.09.07-.16v-2.25c0-.07-.02-.11-.07-.16-.09-.07-.25-.07-.32,0"/>
  <path class="cls-1" d="M80.56,41.53c-.11-.07-.28-.12-.44-.12h-.6c-.14,0-.25-.05-.32-.11-.09-.07-.11-.14-.11-.23s.05-.18.11-.23c.09-.07.18-.09.34-.09h.85s.09-.02.11-.07c.05-.05.07-.09.07-.16s-.02-.11-.07-.16c-.05-.05-.09-.07-.16-.07h-.9c-.16,0-.3.05-.44.12-.11.07-.23.16-.3.28-.07.11-.09.25-.09.39s.02.25.09.39c.07.12.16.23.3.3.11.07.28.12.44.12h.6c.14,0,.25.02.32.09.07.07.12.14.12.25,0,.09-.05.16-.12.23-.09.07-.18.12-.32.12h-1.2c-.07,0-.11.02-.16.07-.05.05-.07.09-.07.16s.02.11.07.16c.05.05.09.07.16.07h1.29c.16,0,.3-.05.44-.12.11-.07.23-.16.3-.3.07-.12.09-.25.09-.39s-.05-.27-.09-.39c-.09-.14-.18-.23-.32-.3"/>
  <path class="cls-1" d="M83.51,40.41c-.14-.07-.28-.11-.44-.11h-.53c-.16,0-.32.05-.44.11-.14.07-.25.18-.32.32-.07.14-.11.28-.11.44v1.59c0,.07.02.11.07.14.09.09.23.09.3,0,.05-.05.07-.09.07-.16v-.53h1.26s.07.02.11.05c.02.02.05.07.05.12v.37c0,.07.02.11.07.16.05.05.09.07.16.07s.11-.02.16-.07c.05-.05.07-.09.07-.16v-1.56c0-.16-.05-.3-.12-.44-.11-.14-.23-.25-.37-.32M82.54,40.73h.53s.09,0,.14.02c.09.02.16.07.23.16.07.07.09.16.09.28v.6h-1.42v-.6c0-.09.02-.18.09-.28.07-.07.14-.14.23-.16.02-.02.07-.02.11-.02"/>
  <path class="cls-1" d="M88.31,41.49c.07-.12.11-.25.11-.39s-.05-.28-.09-.39c-.07-.11-.16-.21-.3-.28-.11-.07-.28-.12-.44-.12h-.9c-.07,0-.12.02-.16.07-.05.05-.07.09-.07.16v2.48h1.52c.16,0,.3-.05.44-.12.11-.07.23-.16.3-.3.07-.11.09-.25.09-.39,0-.16-.05-.32-.14-.46-.11-.14-.23-.23-.37-.28M88.33,42.2c0,.09-.05.16-.11.23-.09.07-.18.09-.32.09h-.83s-.07-.02-.11-.05c-.02-.02-.05-.07-.05-.11v-.53h.99c.14,0,.25.02.34.09.07.11.09.18.09.28M86.91,41.42v-.69h.6c.14,0,.25.02.35.09.09.07.11.14.11.23s-.05.16-.11.23c-.09.07-.18.09-.32.09h-.62v.05Z"/>
  <path class="cls-1" d="M91.29,40.41c-.14-.07-.28-.11-.44-.11h-.53c-.16,0-.32.05-.44.11-.14.07-.25.18-.32.32-.07.14-.11.28-.11.44v1.59c0,.07.02.11.07.14.09.09.23.09.3,0,.05-.05.07-.09.07-.16v-.53h1.26s.07.02.11.05c.02.02.05.07.05.12v.37c0,.07.02.11.07.16.05.05.09.07.16.07s.11-.02.16-.07c.05-.05.07-.09.07-.16v-1.56c0-.16-.05-.3-.12-.44-.11-.14-.23-.25-.37-.32M90.33,40.73h.53s.09,0,.14.02c.09.02.16.07.23.16.07.07.09.16.09.28v.6h-1.42v-.6c0-.09.02-.18.09-.28.07-.07.14-.14.23-.16.02-.02.07-.02.11-.02"/>
  <path class="cls-1" d="M94.37,41.53c-.11-.07-.28-.12-.44-.12h-.6c-.14,0-.25-.05-.32-.11-.09-.07-.11-.14-.11-.23s.05-.18.11-.23c.09-.07.18-.09.34-.09h.85s.09-.02.11-.07c.05-.05.07-.09.07-.16s-.02-.11-.07-.16c-.05-.05-.09-.07-.16-.07h-.92c-.16,0-.3.05-.44.12-.11.07-.23.16-.3.28-.07.11-.09.25-.09.39s.02.25.09.39c.07.12.16.23.3.3.11.07.28.12.44.12h.6c.14,0,.25.02.32.09.07.07.11.14.11.25,0,.09-.05.16-.11.23-.09.07-.18.12-.32.12h-1.2c-.07,0-.11.02-.16.07-.05.05-.07.09-.07.16s.02.11.07.16c.05.05.09.07.16.07h1.29c.16,0,.3-.05.44-.12.11-.07.23-.16.3-.3.07-.12.09-.25.09-.39s-.05-.27-.09-.39c-.07-.14-.18-.23-.3-.3"/>
  <path class="cls-1" d="M97.54,42.55h-1.65v-.69h1.26c.07,0,.11-.02.16-.07.05-.05.07-.09.07-.16s-.02-.12-.07-.16c-.05-.05-.09-.07-.16-.07h-1.26v-.53s.02-.09.05-.11c.02-.02.07-.05.11-.05h1.12c.07,0,.11-.02.16-.07.05-.05.07-.09.07-.16s-.02-.11-.07-.16c-.05-.05-.09-.07-.16-.07h-1.49c-.07,0-.11.02-.16.07-.05.05-.07.09-.07.16v2.25c0,.07.02.12.07.16.05.05.09.07.16.07h1.88c.07,0,.11-.02.16-.07.05-.05.07-.09.07-.16s-.02-.11-.07-.16c-.07,0-.12-.02-.18-.02"/>
  <path class="cls-1" d="M100.28,40.41c-.14-.07-.28-.11-.44-.11h-.53c-.16,0-.32.05-.44.11-.14.07-.25.18-.32.32-.07.14-.11.28-.11.44v1.59c0,.07.02.11.07.14.09.09.23.09.3,0,.05-.05.07-.09.07-.16v-.53h1.26s.07.02.12.05c.02.02.05.07.05.12v.37c0,.07.02.11.07.16.05.05.09.07.16.07s.11-.02.16-.07c.05-.05.07-.09.07-.16v-1.56c0-.16-.05-.3-.11-.44-.14-.14-.23-.25-.37-.32M99.29,40.73h.53s.09,0,.14.02c.09.02.16.07.23.16.07.07.09.16.09.28v.6h-1.42v-.6c0-.09.02-.18.09-.28.07-.07.14-.14.23-.16.02-.02.07-.02.11-.02"/>
  <path class="cls-1" d="M103.26,41.42h-1.35v-.53s.02-.09.05-.12c.02-.02.07-.05.11-.05h.76c.07,0,.11-.02.16-.07.05-.05.07-.09.07-.16s-.02-.12-.07-.16c-.05-.05-.09-.07-.16-.07h-1.13c-.07,0-.11.02-.16.07-.05.05-.07.09-.07.16v2.25c0,.07.02.11.07.16.05.05.09.07.16.07s.11-.02.16-.07.07-.09.07-.16v-.9h1.26c.07,0,.11-.02.16-.07.05-.05.07-.09.07-.16s-.02-.12-.07-.16l-.09-.05Z"/>
  <path class="cls-1" d="M105.47,41.81c.14-.07.25-.16.35-.28.09-.14.14-.3.14-.46,0-.14-.04-.28-.09-.39-.07-.11-.16-.21-.3-.28-.11-.07-.28-.11-.44-.11h-.9c-.07,0-.11.02-.16.07-.05.05-.07.09-.07.16v2.25c0,.07.02.11.07.16.09.09.23.09.32,0,.05-.05.07-.09.07-.16v-.9h.44l1.06,1.06s.09.07.16.07.11-.02.16-.07.07-.09.07-.16-.02-.12-.07-.16l-.8-.8ZM105.51,41.07c0,.09-.05.16-.11.23-.09.07-.18.09-.32.09h-.44s-.07-.02-.11-.05c-.02-.02-.05-.07-.05-.12v-.53h.6c.14,0,.25.02.34.09.05.12.09.18.09.28"/>
  <path class="cls-1" d="M107.05,40.36s-.07.09-.07.16v2.25c0,.07.02.12.07.16.05.05.09.07.16.07s.11-.02.16-.07c.05-.05.07-.09.07-.16v-2.25c0-.07-.02-.11-.07-.16-.09-.07-.23-.07-.32,0"/>
  <path class="cls-1" d="M110.47,40.87s-.02-.09-.07-.12c-.09-.09-.23-.09-.32,0-.04.05-.07.09-.07.16v.07c0,.09-.02.18-.09.28-.07.07-.14.14-.23.16-.02.02-.07.02-.14.02h-.99v-.9c0-.07-.02-.11-.07-.16-.05-.05-.09-.07-.16-.07s-.11.02-.16.07c-.05.05-.07.09-.07.16v2.25c0,.07.02.11.07.16.05.05.09.07.16.07s.11-.02.16-.07c.05-.05.07-.09.07-.16v-.78s.02-.07.05-.11c.02-.02.07-.05.09-.05h.83s.09,0,.14.02c.09.02.16.09.23.16.07.07.09.16.09.27v.46c0,.07.02.11.07.16.05.04.09.07.16.07s.11-.02.16-.07c.05-.05.05-.07.07-.12v-.48c0-.14-.02-.28-.09-.39-.05-.12-.11-.21-.21-.28.09-.07.16-.18.21-.28.07-.11.09-.25.09-.39v-.07l.02-.07Z"/>
  <path class="cls-1" d="M113.39,40.73c-.07-.14-.18-.25-.32-.32s-.28-.11-.44-.11h-.53c-.16,0-.32.05-.44.11-.14.07-.25.18-.32.32-.07.14-.11.28-.11.44v1.59c0,.07.02.11.07.14.09.09.23.09.3,0,.05-.05.07-.09.07-.16v-.53h1.26s.07.02.11.05c.02.02.05.07.05.12v.37c0,.07.02.11.07.16.05.05.09.07.16.07s.11-.02.16-.07c.05-.05.07-.09.07-.16v-1.56c-.02-.16-.07-.3-.16-.44M112.11,40.73h.53s.09,0,.14.02c.09.02.16.07.23.16.07.07.09.16.09.28v.6h-1.42v-.6c0-.09.02-.18.09-.28.07-.07.14-.14.23-.16.02-.02.05-.02.11-.02"/>
  <path class="cls-1" d="M17.09,40.29c.13,0,.23.1.23.23s-.1.23-.23.23-.23-.1-.23-.23.1-.23.23-.23"/>
  <path class="cls-1" d="M17.09,41.19c-.11,0-.23.09-.23.23v1.35c0,.12.09.23.23.23.11,0,.23-.09.23-.23v-1.35c0-.11-.11-.23-.23-.23"/>
  <path class="cls-1" d="M9.17,20.4H.9c-.48,0-.87.39-.87.87s.39.87.87.87h8.27c.48,0,.87-.39.87-.87.02-.48-.37-.87-.87-.87"/>
  <path class="cls-1" d="M9.17,23.89c-.48,0-.87.39-.87.87v6h-2.37v-4.62c0-.48-.39-.87-.87-.87s-.87.39-.87.87v4.62h-1.86c-.28,0-.51-.23-.51-.51v-4.11c0-.48-.39-.87-.87-.87s-.87.39-.87.87v5.51c0,.48.39.87.87.87h8.27c.48,0,.87-.39.87-.87v-6.89c-.02-.48-.41-.87-.92-.87"/>
  <path class="cls-1" d="M9.19,12.89H2.27c-.28,0-.51-.23-.51-.5v-1.38c0-.48-.39-.87-.9-.87s-.87.39-.87.87v6.89c0,.48.39.87.87.87.23,0,.46-.09.62-.25.16-.16.25-.39.25-.62v-3.24h7.4c.48,0,.9-.39.9-.87.02-.51-.37-.9-.85-.9"/>
  <path class="cls-1" d="M9.17.05c-.48,0-.87.39-.87.87v5.74c0,.12-.05.14-.14.14-.11,0-.18-.07-.23-.11L1.54.3C1.36.14,1.15.05.9.05.41.05.02.44.02.92v6.89c0,.48.39.87.87.87s.87-.39.87-.87V3.05l4.2,4.2s.37.39.57.58l.05.05c.3.28.9.83,1.86.83s1.56-.58,1.56-1.59V.92c.05-.48-.34-.87-.85-.87"/>
  <path class="cls-1" d="M8.48,43c-.97,0-1.59-.55-1.86-.83l-.05-.05c-.21-.18-.55-.55-.57-.57l-4.2-4.2v4.76c0,.48-.39.87-.87.87s-.87-.39-.87-.87v-6.89c0-.48.39-.87.87-.87.23,0,.46.09.62.25l6.41,6.41s.11.12.23.12c.07,0,.14-.05.14-.14v-5.74c0-.48.39-.87.87-.87s.87.39.87.87v6.18c0,1.01-.55,1.58-1.59,1.58"/>
  <path class="cls-1" d="M17.34,34.3l1.7-1.72s.07-.09.07-.16-.02-.12-.07-.16c-.05-.05-.09-.07-.16-.07h-1.84c-.07,0-.11.02-.16.07-.05.05-.07.09-.07.16s.02.11.07.16c.04.05.09.07.16.07h1.31l-1.15,1.15s-.02.02-.07.07c-.02.02-.07.07-.09.09-.07.07-.11.14-.16.21-.05.07-.07.18-.07.3,0,.25.14.39.41.39h1.65c.07,0,.11-.02.16-.07.05-.05.07-.09.07-.16s-.02-.11-.07-.16c-.05-.05-.09-.07-.16-.07h-1.56s-.02,0-.02-.02-.02-.02-.02-.05,0-.02.02-.05l.05.02Z"/>
  <path class="cls-1" d="M21.48,34.41h-1.63v-.67h1.26c.07,0,.11-.02.16-.07.05-.05.07-.09.07-.16s-.02-.12-.07-.16c-.05-.05-.09-.07-.16-.07h-1.26v-.51s.02-.07.05-.11c.02-.02.07-.05.12-.05h1.1c.07,0,.11-.02.16-.07.05-.05.07-.09.07-.16s-.02-.11-.07-.16c-.05-.05-.09-.07-.16-.07h-1.47c-.07,0-.11.02-.16.07-.05.05-.07.09-.07.16v2.21c0,.07.02.12.07.16.05.05.09.07.16.07h1.84c.07,0,.11-.02.16-.07.05-.05.07-.09.07-.16s-.02-.11-.07-.16c-.05,0-.09-.02-.16-.02"/>
  <path class="cls-1" d="M22.21,32.21c-.07,0-.11.02-.16.07-.05.05-.07.09-.07.16v2.21c0,.07.02.11.07.16.05.05.09.07.16.07s.11-.02.16-.07c.05-.05.07-.09.07-.16v-2.21c0-.07-.02-.11-.07-.16-.05-.05-.09-.07-.16-.07"/>
  <path class="cls-1" d="M24.81,32.21h-1.84c-.07,0-.11.02-.16.07-.05.05-.07.09-.07.16s.02.12.07.16c.05.05.09.07.16.07h.9v2c0,.07.02.11.07.16.05.05.09.07.16.07s.11-.02.16-.07c.05-.05.07-.09.07-.16v-1.84s.02-.07.04-.11c.02-.02.07-.05.11-.05h.37c.07,0,.11-.02.16-.07.05-.05.07-.09.07-.16s-.02-.11-.07-.16c-.11-.05-.16-.07-.21-.07"/>
  <path class="cls-1" d="M25.73,34.3l1.7-1.72s.07-.09.07-.16-.02-.12-.07-.16c-.05-.05-.09-.07-.16-.07h-1.84c-.07,0-.11.02-.16.07-.05.05-.07.09-.07.16s.02.11.07.16c.04.05.09.07.16.07h1.31l-1.15,1.15s-.02.02-.07.07c-.02.02-.07.07-.09.09-.07.07-.11.14-.16.21-.05.07-.07.18-.07.3,0,.25.14.39.41.39h1.65c.07,0,.11-.02.16-.07.05-.05.07-.09.07-.16s-.02-.11-.07-.16c-.05-.05-.09-.07-.16-.07h-1.56s-.02,0-.02-.02-.02-.02-.02-.05,0-.02.02-.05l.05.02Z"/>
  <path class="cls-1" d="M31.31,32.57c-.07,0-.11.02-.16.07l-.6.57-.94-.97c-.09-.09-.23-.07-.3,0-.05.05-.07.09-.07.14v2.23c0,.07.02.11.07.16.05.05.09.07.16.07s.11-.02.16-.07c.05-.05.07-.09.07-.16v-1.68l.71.71.02.02s.09.05.14.05c.07,0,.11-.02.16-.07l.34-.35v1.31c0,.07.02.11.07.16.05.05.09.07.16.07s.11-.02.16-.07c.05-.05.07-.09.07-.16v-1.84c0-.07-.02-.12-.07-.16-.05-.02-.09-.05-.16-.05"/>
  <path class="cls-1" d="M33.84,32.25s-.07.09-.07.16v1.56c0,.12-.05.23-.14.32-.09.09-.18.14-.32.14h-.53c-.11,0-.23-.05-.32-.14-.09-.09-.14-.18-.14-.32v-1.56c0-.07-.02-.11-.07-.16-.09-.09-.23-.09-.32,0-.05.05-.07.09-.07.16v1.56c0,.16.05.3.11.44.07.14.18.25.32.32s.28.12.44.12h.53c.16,0,.3-.05.44-.12s.25-.18.32-.32c.07-.14.11-.28.11-.44v-1.56c0-.07-.02-.11-.07-.16-.02-.07-.16-.07-.23,0"/>
  <path class="cls-1" d="M36.46,33.4c-.11-.07-.25-.12-.41-.12h-.6c-.14,0-.25-.02-.32-.09-.09-.07-.12-.14-.12-.23s.05-.16.12-.23c.09-.07.18-.09.32-.09h.83s.09-.02.12-.07c.05-.05.07-.09.07-.16s-.02-.12-.07-.16c-.05-.05-.09-.07-.16-.07h-.87c-.16,0-.3.05-.41.11s-.21.16-.28.28c-.07.11-.09.25-.09.39s.02.25.09.37c.07.12.16.21.28.3.11.07.28.12.41.12h.6c.14,0,.25.02.32.09.07.07.12.14.12.23s-.05.16-.12.23c-.09.07-.18.09-.32.09h-1.17c-.07,0-.11.02-.16.07-.05.05-.07.09-.07.16s.02.11.07.16c.05.05.09.07.16.07h1.26c.16,0,.3-.05.41-.11s.23-.16.28-.3c.07-.12.09-.25.09-.37,0-.14-.02-.28-.09-.39-.07-.09-.16-.18-.28-.28"/>
  <path class="cls-1" d="M39.24,34.41h-1.63v-.67h1.26c.07,0,.11-.02.16-.07.05-.05.07-.09.07-.16s-.02-.12-.07-.16c-.05-.05-.09-.07-.16-.07h-1.26v-.51s.02-.07.05-.11c.02-.02.07-.05.12-.05h1.1c.07,0,.11-.02.16-.07.05-.05.07-.09.07-.16s-.02-.11-.07-.16c-.05-.05-.09-.07-.16-.07h-1.47c-.07,0-.11.02-.16.07-.05.05-.07.09-.07.16v2.21c0,.07.02.12.07.16.05.05.09.07.16.07h1.84c.07,0,.11-.02.16-.07.05-.05.07-.09.07-.16s-.02-.11-.07-.16c-.05,0-.09-.02-.16-.02"/>
  <path class="cls-1" d="M41.97,32.25c-.09-.09-.23-.09-.3,0-.05.05-.07.09-.07.16v1.56c0,.12-.05.23-.14.32-.09.09-.18.14-.32.14h-.5c-.12,0-.23-.05-.32-.14-.09-.09-.14-.18-.14-.32v-1.56c0-.07-.02-.11-.07-.16-.09-.09-.23-.09-.32,0-.05.05-.07.09-.07.16v1.56c0,.16.05.3.11.44.07.14.18.25.32.32s.28.12.44.12h.53c.16,0,.3-.05.44-.12.14-.07.25-.18.32-.32.07-.14.11-.28.11-.44v-1.56c.05-.07.02-.11-.02-.16"/>
  <path class="cls-1" d="M44.5,32.57c-.07,0-.11.02-.16.07l-.6.57-.94-.97c-.09-.09-.23-.07-.3,0-.05.05-.07.09-.07.14v2.23c0,.07.02.11.07.16.05.05.09.07.16.07s.11-.02.16-.07c.05-.05.07-.09.07-.16v-1.68l.71.71.02.02s.09.05.14.05c.07,0,.11-.02.16-.07l.34-.35v1.31c0,.07.02.11.07.16.05.05.09.07.16.07s.11-.02.16-.07c.05-.05.07-.09.07-.16v-1.84c0-.07-.02-.12-.07-.16-.05-.02-.11-.05-.16-.05"/>
  <path class="cls-1" d="M48.43,32.25s-.07.09-.07.16v1.38l-.62.62s-.02,0-.02.02h-.16l-.62-.62v-1.38c0-.07-.02-.11-.07-.16-.09-.09-.23-.09-.3,0-.02.02-.05.07-.07.12v1.56s.02.09.07.14l.71.71s.09.07.16.07h.37c.07,0,.11-.02.16-.07l.71-.71s.07-.09.07-.16v-1.47c0-.07-.02-.12-.07-.16-.02-.12-.16-.12-.25-.05"/>
  <path class="cls-1" d="M51.02,32.3c-.14-.07-.28-.12-.44-.12h-.53c-.16,0-.3.05-.44.12s-.23.18-.32.32c-.07.14-.11.28-.11.44v1.56c0,.07.02.12.07.14.09.07.23.09.3,0,.05-.05.07-.09.07-.16v-.51h1.26s.07.02.11.05c.02.02.05.07.05.12v.37c0,.07.02.12.07.16.05.05.09.07.16.07s.11-.02.16-.07c.04-.05.07-.09.07-.16v-1.56c0-.16-.05-.3-.11-.44-.14-.14-.23-.25-.37-.32M51.02,33.65h-1.4v-.6c0-.09.02-.18.09-.25.07-.07.14-.14.23-.16.02-.02.07-.02.11-.02h.53s.09,0,.14.02c.09.02.16.07.23.16.07.07.09.16.09.25v.6h-.02Z"/>
  <path class="cls-1" d="M54.05,32.25c-.09-.07-.21-.07-.3,0-.05.05-.07.09-.07.14v1.7l-1.47-1.47c-.09-.09-.23-.09-.32,0-.05.04-.07.09-.07.16v1.84c0,.07.02.11.07.16.05.05.09.07.16.07s.12-.02.16-.07c.05-.05.07-.09.07-.16v-1.31l1.47,1.47s.09.07.16.07.11-.02.16-.07c.05-.05.07-.09.07-.16v-2.23s-.05-.09-.09-.14"/>
  <path class="cls-1" d="M58.21,32.76s-.02-.09-.07-.12c-.09-.09-.23-.09-.3,0-.05.05-.07.09-.07.16v.07c0,.09-.02.18-.09.25-.07.07-.14.14-.23.16-.02.02-.07.02-.14.02h-.97v-.9c0-.07-.02-.11-.07-.16-.09-.09-.23-.09-.32,0-.05.05-.07.09-.07.16v2.21c0,.07.02.12.07.16.05.05.09.07.16.07s.11-.02.16-.07c.05-.05.07-.09.07-.16v-.74s.02-.07.05-.09.07-.05.09-.05h.83s.09,0,.14.02c.09.02.16.09.23.16.07.07.09.16.09.25v.44c0,.07.02.12.07.16.05.05.09.07.16.07s.11-.02.16-.07c.02-.02.05-.07.07-.11v-.48c0-.14-.02-.28-.09-.39-.05-.12-.12-.21-.21-.28.09-.07.16-.16.21-.28.07-.11.09-.25.09-.39v-.07l-.02-.02Z"/>
  <path class="cls-1" d="M60.44,32.32c-.14-.07-.28-.12-.44-.12h-.53c-.16,0-.3.05-.44.12s-.25.18-.32.32c-.07.14-.11.28-.11.44v.9c0,.16.05.3.11.44.07.14.18.23.32.32.14.07.28.12.44.12h.53c.16,0,.3-.05.44-.12s.25-.18.32-.32c.07-.14.11-.28.11-.44v-.9c0-.16-.04-.3-.11-.44-.09-.14-.18-.25-.32-.32M60.44,33.98c0,.12-.05.23-.14.32-.09.09-.18.14-.32.14h-.51c-.11,0-.23-.05-.32-.14-.09-.09-.14-.18-.14-.32v-.9c0-.09.02-.18.09-.25.07-.07.14-.14.23-.16.02-.02.07-.02.14-.02h.53s.09,0,.14.02c.09.02.16.07.23.16.07.07.09.16.09.25v.9h-.02Z"/>
  <path class="cls-1" d="M63.47,32.25c-.09-.07-.21-.07-.3,0-.05.05-.07.09-.07.14v1.7l-1.47-1.47c-.09-.09-.23-.09-.32,0-.05.04-.07.09-.07.16v1.84c0,.07.02.11.07.16.05.05.09.07.16.07s.12-.02.16-.07c.05-.05.07-.09.07-.16v-1.31l1.47,1.47s.09.07.16.07.11-.02.16-.07c.05-.05.07-.09.07-.16v-2.23s-.05-.09-.09-.14"/>
  <path class="cls-1" d="M65.91,32.21h-1.84c-.07,0-.11.02-.16.07-.05.05-.07.09-.07.16s.02.12.07.16c.05.05.09.07.16.07h.9v2c0,.07.02.11.07.16.05.05.09.07.16.07s.11-.02.16-.07c.05-.05.07-.09.07-.16v-1.84s.02-.07.05-.11c.02-.02.07-.05.11-.05h.37c.07,0,.11-.02.16-.07.05-.05.07-.09.07-.16s-.02-.11-.07-.16c-.11-.05-.16-.07-.21-.07"/>
  <path class="cls-1" d="M68.48,34.41h-1.63v-.67h1.26c.07,0,.11-.02.16-.07.05-.05.07-.09.07-.16s-.02-.12-.07-.16c-.05-.05-.09-.07-.16-.07h-1.26v-.51s.02-.07.05-.11c.02-.02.07-.05.12-.05h1.1c.07,0,.11-.02.16-.07.05-.05.07-.09.07-.16s-.02-.11-.07-.16c-.05-.05-.09-.07-.16-.07h-1.47c-.07,0-.11.02-.16.07-.05.05-.07.09-.07.16v2.21c0,.07.02.12.07.16.05.05.09.07.16.07h1.84c.07,0,.11-.02.16-.07.05-.05.07-.09.07-.16s-.02-.11-.07-.16c-.05,0-.09-.02-.16-.02"/>
  <path class="cls-1" d="M71.05,32.57c-.07,0-.11.02-.16.07l-.6.57-.94-.97c-.09-.09-.23-.07-.3,0-.05.05-.07.09-.07.14v2.23c0,.07.02.11.07.16.05.05.09.07.16.07s.11-.02.16-.07c.05-.05.07-.09.07-.16v-1.68l.71.71.02.02s.09.05.14.05c.07,0,.11-.02.16-.07l.34-.35v1.31c0,.07.02.11.07.16.05.05.09.07.16.07s.11-.02.16-.07c.05-.05.07-.09.07-.16v-1.84c0-.07-.02-.12-.07-.16-.05-.02-.09-.05-.16-.05"/>
  <path class="cls-1" d="M73.19,32.3c-.12-.07-.25-.12-.41-.12h-.94s-.09.02-.11.07c-.05.05-.07.09-.07.16v2.2c0,.07.02.12.07.16.05.05.09.07.16.07s.11-.02.16-.07c.05-.05.07-.09.07-.16v-.87h.67c.16,0,.3-.05.41-.11.11-.07.21-.16.27-.3.07-.12.09-.25.09-.37,0-.14-.02-.28-.09-.39-.07-.12-.16-.21-.27-.28M73.01,33.2c-.09.07-.18.09-.32.09h-.44s-.07-.02-.11-.05c-.02-.02-.05-.07-.05-.12v-.51h.57c.14,0,.25.02.32.09.07.07.11.14.11.23.02.11-.02.18-.09.25"/>
  <path class="cls-1" d="M75.65,32.32c-.14-.07-.28-.12-.44-.12h-.53c-.16,0-.3.05-.44.12s-.25.18-.32.32c-.07.14-.11.28-.11.44v.9c0,.16.05.3.11.44.07.14.18.23.32.32.14.07.28.12.44.12h.53c.16,0,.3-.05.44-.12s.25-.18.32-.32c.07-.14.11-.28.11-.44v-.9c0-.16-.04-.3-.11-.44-.07-.14-.18-.25-.32-.32M75.65,33.98c0,.12-.05.23-.14.32-.09.09-.18.14-.32.14h-.53c-.12,0-.23-.05-.32-.14-.09-.09-.14-.18-.14-.32v-.9c0-.09.02-.18.09-.25.07-.07.14-.14.23-.16.02-.02.07-.02.14-.02h.53s.09,0,.14.02c.09.02.16.07.23.16.07.07.09.16.09.25v.9Z"/>
  <path class="cls-1" d="M77.92,33.68c.14-.05.25-.14.35-.27.09-.14.14-.28.14-.44,0-.14-.02-.28-.09-.39-.07-.12-.16-.21-.28-.28-.11-.07-.25-.12-.41-.12h-.92c-.07,0-.11.02-.16.07-.05.05-.07.09-.07.16v2.2c0,.07.02.12.07.16.09.09.23.09.3,0,.05-.05.07-.09.07-.16v-.87h.44l1.06,1.03s.09.07.16.07.11-.02.16-.07c.05-.05.07-.09.07-.16s-.02-.12-.07-.16l-.8-.78ZM77.83,33.2c-.09.07-.18.09-.32.09h-.41s-.07-.02-.11-.05c-.02-.02-.05-.07-.05-.12v-.51h.57c.14,0,.25.02.32.09.07.07.11.14.11.23,0,.11-.05.18-.11.25"/>
  <path class="cls-1" d="M83.11,33.68c.14-.05.25-.14.34-.27.09-.14.14-.28.14-.44,0-.14-.02-.28-.09-.39-.07-.12-.16-.21-.28-.28-.11-.07-.25-.12-.41-.12h-.9c-.07,0-.11.02-.16.07-.05.05-.07.09-.07.16v2.2c0,.07.02.12.07.16.09.09.23.09.3,0,.05-.05.07-.09.07-.16v-.87h.44l1.06,1.03s.09.07.16.07.11-.02.16-.07c.05-.05.07-.09.07-.16s-.02-.12-.07-.16l-.83-.78ZM83.02,33.2c-.09.07-.18.09-.32.09h-.41s-.07-.02-.11-.05c-.02-.02-.05-.07-.05-.12v-.51h.57c.14,0,.25.02.32.09.07.07.11.14.11.23,0,.11-.02.18-.11.25"/>
  <path class="cls-1" d="M86.33,34.41h-1.63v-.67h1.26c.07,0,.11-.02.16-.07.05-.05.07-.09.07-.16s-.02-.12-.07-.16c-.05-.05-.09-.07-.16-.07h-1.26v-.51s.02-.07.05-.11c.02-.02.07-.05.12-.05h1.1c.07,0,.11-.02.16-.07.05-.05.07-.09.07-.16s-.02-.11-.07-.16c-.05-.05-.09-.07-.16-.07h-1.47c-.07,0-.11.02-.16.07-.05.05-.07.09-.07.16v2.21c0,.07.02.12.07.16.05.05.09.07.16.07h1.84c.07,0,.11-.02.16-.07.05-.05.07-.09.07-.16s-.02-.11-.07-.16c-.05,0-.09-.02-.16-.02"/>
  <path class="cls-1" d="M90.56,32.76s-.02-.09-.07-.12c-.09-.09-.23-.09-.3,0-.05.05-.07.09-.07.16v.07c0,.09-.02.18-.09.25-.07.07-.14.14-.23.16-.02.02-.07.02-.14.02h-.97v-.9c0-.07-.02-.11-.07-.16-.09-.09-.23-.09-.32,0-.05.05-.07.09-.07.16v2.21c0,.07.02.12.07.16.05.05.09.07.16.07s.11-.02.16-.07c.05-.05.07-.09.07-.16v-.74s.02-.07.05-.09.07-.05.09-.05h.83s.09,0,.14.02c.09.02.16.09.23.16.07.07.09.16.09.25v.44c0,.07.02.12.07.16.05.05.09.07.16.07s.11-.02.16-.07c.02-.02.05-.07.07-.11v-.48c0-.14-.02-.28-.09-.39-.05-.12-.12-.21-.21-.28.09-.07.16-.16.21-.28.07-.11.09-.25.09-.39v-.07l-.02-.02Z"/>
  <path class="cls-1" d="M93.15,32.25c-.09-.09-.23-.09-.3,0-.05.05-.07.09-.07.16v1.56c0,.12-.05.23-.14.32-.09.09-.18.14-.32.14h-.53c-.11,0-.23-.05-.32-.14-.09-.09-.14-.18-.14-.32v-1.56c0-.07-.02-.11-.07-.16-.09-.09-.23-.09-.32,0-.05.05-.07.09-.07.16v1.56c0,.16.05.3.11.44.07.14.18.25.32.32s.28.12.44.12h.53c.16,0,.3-.05.44-.12.14-.07.25-.18.32-.32.07-.14.11-.28.11-.44v-1.56c.07-.07.05-.11,0-.16"/>
  <path class="cls-1" d="M95.82,32.25c-.09-.07-.21-.07-.3,0-.05.05-.07.09-.07.14v1.7l-1.47-1.47c-.09-.09-.23-.09-.32,0-.05.04-.07.09-.07.16v1.84c0,.07.02.11.07.16.05.05.09.07.16.07s.12-.02.16-.07c.05-.05.07-.09.07-.16v-1.31l1.47,1.47s.09.07.16.07.11-.02.16-.07c.05-.05.07-.09.07-.16v-2.23s-.05-.09-.09-.14"/>
  <path class="cls-1" d="M98.14,33.4c-.11-.07-.25-.12-.41-.12h-.6c-.14,0-.25-.02-.32-.09-.09-.07-.12-.14-.12-.23s.05-.16.12-.23c.09-.07.18-.09.32-.09h.85s.09-.02.11-.07c.05-.05.07-.09.07-.16s-.02-.12-.07-.16c-.05-.05-.09-.07-.16-.07h-.9c-.16,0-.3.05-.41.11s-.21.16-.28.28c-.07.11-.09.25-.09.39s.02.25.09.37c.07.12.16.21.28.3.11.07.28.12.41.12h.6c.14,0,.25.02.32.09.07.07.12.14.12.23s-.05.16-.12.23c-.09.07-.18.09-.32.09h-1.17c-.07,0-.11.02-.16.07-.05.05-.07.09-.07.16s.02.11.07.16c.05.05.09.07.16.07h1.26c.16,0,.3-.05.41-.11s.23-.16.28-.3c.07-.12.09-.25.09-.37,0-.14-.02-.28-.09-.39-.05-.09-.14-.18-.28-.28"/>
  <path class="cls-1" d="M102.04,32.3c-.14-.07-.28-.12-.44-.12h-.53c-.16,0-.3.05-.44.12s-.23.18-.32.32c-.07.14-.12.28-.12.44v1.56c0,.07.02.12.07.14.09.07.23.09.3,0,.05-.05.07-.09.07-.16v-.51h1.26s.07.02.11.05c.02.02.05.07.05.12v.37c0,.07.02.12.07.16.05.05.09.07.16.07s.11-.02.16-.07c.04-.05.07-.09.07-.16v-1.56c0-.16-.05-.3-.11-.44-.11-.14-.23-.25-.37-.32M102.07,33.65h-1.4v-.6c0-.09.02-.18.09-.25.07-.07.14-.14.23-.16.02-.02.07-.02.11-.02h.53s.09,0,.14.02c.09.02.16.07.23.16.07.07.09.16.09.25v.6h-.02Z"/>
  <path class="cls-1" d="M104.66,33.31h-1.33v-.51s.02-.07.05-.11c.02-.02.07-.05.09-.05h.74c.07,0,.11-.02.16-.07.05-.05.07-.09.07-.16s-.02-.12-.07-.16c-.05-.05-.09-.07-.16-.07h-1.1c-.07,0-.11.02-.16.07-.05.05-.07.09-.07.16v2.2c0,.07.02.12.07.16.05.05.09.07.16.07s.11-.02.16-.07c.05-.05.07-.09.07-.16v-.87h1.24c.07,0,.11-.02.16-.07.05-.05.07-.09.07-.16s-.02-.12-.07-.16l-.07-.05Z"/>
  <path class="cls-1" d="M106.52,33.68c.14-.05.25-.14.34-.27.09-.14.14-.28.14-.44,0-.14-.02-.28-.09-.39-.07-.12-.16-.21-.28-.28-.11-.07-.25-.12-.41-.12h-.9c-.07,0-.11.02-.16.07-.05.05-.07.09-.07.16v2.2c0,.07.02.12.07.16.09.09.23.09.3,0,.05-.05.07-.09.07-.16v-.87h.44l1.06,1.03s.09.07.16.07.11-.02.16-.07c.05-.05.07-.09.07-.16s-.02-.12-.07-.16l-.83-.78ZM106.43,33.2c-.09.07-.18.09-.32.09h-.41s-.07-.02-.11-.05c-.02-.02-.05-.07-.05-.12v-.51h.57c.14,0,.25.02.32.09.07.07.11.14.11.23,0,.11-.05.18-.11.25"/>
  <path class="cls-1" d="M107.74,32.28s-.07.09-.07.16v2.21c0,.07.02.11.07.16.05.05.09.07.16.07s.11-.02.16-.07c.05-.05.07-.09.07-.16v-2.21c0-.07-.02-.11-.07-.16-.12-.09-.25-.09-.32,0"/>
  <path class="cls-1" d="M110.84,32.76s-.02-.09-.07-.12c-.09-.09-.23-.09-.3,0-.05.05-.07.09-.07.16v.07c0,.09-.02.18-.09.25-.07.07-.14.14-.23.16-.02.02-.07.02-.14.02h-.97v-.9c0-.07-.02-.11-.07-.16-.09-.09-.23-.09-.32,0-.05.05-.07.09-.07.16v2.21c0,.07.02.12.07.16.05.05.09.07.16.07s.11-.02.16-.07c.05-.05.07-.09.07-.16v-.74s.02-.07.05-.09.07-.05.09-.05h.83s.09,0,.14.02c.09.02.16.09.23.16.07.07.09.16.09.25v.44c0,.07.02.12.07.16.05.05.09.07.16.07s.11-.02.16-.07c.02-.02.05-.07.07-.11v-.48c0-.14-.02-.28-.09-.39-.05-.12-.12-.21-.21-.28.09-.07.16-.16.21-.28.07-.11.09-.25.09-.39v-.07l-.02-.02Z"/>
  <path class="cls-1" d="M113.39,32.62c-.07-.14-.18-.25-.32-.32s-.28-.12-.44-.12h-.53c-.16,0-.3.05-.44.12s-.23.18-.32.32c-.07.14-.11.28-.11.44v1.56c0,.07.02.12.07.14.09.07.23.09.3,0,.05-.05.07-.09.07-.16v-.51h1.26s.07.02.11.05c.02.02.05.07.05.12v.37c0,.07.02.12.07.16.05.05.09.07.16.07s.11-.02.16-.07c.04-.05.07-.09.07-.16v-1.56c-.05-.16-.09-.32-.16-.44M113.07,33.65h-1.4v-.6c0-.09.02-.18.09-.25.07-.07.14-.14.23-.16.02-.02.07-.02.11-.02h.53s.09,0,.14.02c.09.02.16.07.23.16.07.07.09.16.09.25v.6h-.02Z"/>
  <path class="cls-1" d="M79.74,31.77s.09-.02.11-.05l.25-.25.25.25s.07.05.11.05c.09,0,.18-.09.18-.18,0-.05-.02-.12-.07-.14l-.34-.34s-.09-.07-.14-.07-.11.02-.14.07l-.37.37s-.05.07-.05.12c0,.09.09.18.18.18"/>
  <path class="cls-1" d="M81.14,34.41h-1.63v-.67h1.26c.07,0,.11-.02.16-.07.05-.05.07-.09.07-.16s-.02-.12-.07-.16c-.05-.05-.09-.07-.16-.07h-1.26v-.51s.02-.07.05-.11c.02-.02.07-.05.12-.05h1.1c.07,0,.11-.02.16-.07.05-.05.07-.09.07-.16s-.02-.11-.07-.16c-.05-.05-.09-.07-.16-.07h-1.47c-.07,0-.11.02-.16.07-.05.05-.07.09-.07.16v2.21c0,.07.02.12.07.16.05.05.09.07.16.07h1.84c.07,0,.11-.02.16-.07.05-.05.07-.09.07-.16s-.02-.11-.07-.16c-.05,0-.09-.02-.16-.02"/>
</svg>